<svg width="26" height="27" viewBox="0 0 26 27" fill="none" xmlns="http://www.w3.org/2000/svg">
<g clip-path="url(#clip0_25_5241)">
<path d="M12.5806 0.838711L12.0327 0.864576L11.4897 0.939584L10.9515 1.06373L10.4282 1.23962L9.922 1.45947L9.43548 1.72587L8.97354 2.03884L8.53862 2.3906L8.13073 2.77857L7.76216 3.20534L7.42799 3.66315L7.13313 4.14941L6.88004 4.66412L6.67118 5.19693L6.5041 5.74785L6.38615 6.31171L6.31489 6.8859L6.29032 7.46269L6.31244 8.36279L6.38369 9.26029L6.49918 10.1552L6.66135 11.0398L6.86775 11.9114L7.12084 12.7753L7.42061 13.6211L7.75725 14.4462L8.14056 15.2532L8.36908 15.6618L8.63445 16.0472L8.71799 16.1947L8.76222 16.3602L8.76714 16.5283L8.72782 16.6964L8.64919 16.8464L8.53862 16.9706L8.40102 17.0611L8.24376 17.1103L7.16507 17.3249L6.09375 17.5862L5.03472 17.894L3.98797 18.2483L2.95842 18.644L2.56036 18.838L2.18687 19.076L1.84287 19.3605L1.53081 19.6838L1.25561 20.0407L1.02463 20.4313L0.835433 20.8477L0.584803 21.5668L0.373488 22.3039L0.211316 23.054L0.093372 23.8093L0.0245716 24.5749L0 25.343L0.0245716 25.5293L0.100743 25.7026L0.21623 25.8448L0.368574 25.9457L0.538117 26H0.719947L0.889491 25.9457L1.04183 25.8448L1.15732 25.7026L1.23349 25.5293L1.25806 25.343L1.28018 24.6602L1.34161 23.9825L1.44481 23.3049L1.58978 22.6427L1.77652 21.9858L2.00013 21.3469L2.15001 21.0236L2.33921 20.7262L2.56527 20.4598L2.82327 20.227L3.1083 20.0304L3.41545 19.8804L4.39831 19.4976L5.39346 19.1613L6.40089 18.8691L7.42307 18.6208L8.45016 18.4164L8.74011 18.3414L9.02022 18.2173L9.27331 18.0492L9.49937 17.8371L9.68857 17.5939L9.84091 17.3172L9.95149 17.0223L10.0105 16.7119L10.0277 16.3964L9.99326 16.0808L9.91217 15.7756L9.78686 15.4885L9.62223 15.2273L9.4232 14.935L9.2512 14.6324L8.89982 13.8901L8.58776 13.1271L8.31502 12.3511L8.08159 11.5571L7.89239 10.7527L7.7425 9.93795L7.63439 9.11804L7.56804 8.29295L7.54839 7.46269L7.57296 6.94281L7.64667 6.4281L7.76462 5.92373L7.9317 5.43489L8.14302 4.96415L8.39611 4.51927L8.69096 4.10026L9.02022 3.71488L9.3888 3.3657L9.7844 3.05533L10.2095 2.7915L10.6567 2.56648L11.1211 2.39319L11.5978 2.26645L12.0868 2.18885L12.5806 2.16299L13.0745 2.18885L13.5635 2.26645L14.0402 2.39319L14.5046 2.56648L14.9543 2.7915L15.3769 3.05533L15.7725 3.3657L16.1411 3.71488L16.4703 4.10026L16.7652 4.51927L17.0183 4.96415L17.2296 5.43489L17.3967 5.92373L17.5171 6.4281L17.5908 6.94281L17.6129 7.46269L17.5932 8.29295L17.5269 9.11804L17.4188 9.93795L17.2714 10.7527L17.0797 11.5571L16.8463 12.3511L16.5735 13.1271L16.2615 13.8901L15.9101 14.6324L15.7381 14.935L15.5391 15.2273L15.3744 15.4885L15.2491 15.7756L15.168 16.0808L15.1336 16.3964L15.1508 16.7119L15.2123 17.0223L15.3204 17.3172L15.4727 17.5939L15.6644 17.8371L15.888 18.0492L16.1411 18.2173L16.4212 18.3414L16.7111 18.4164L17.7382 18.6208L18.7604 18.8691L19.7678 19.1613L20.7654 19.4976L21.7458 19.8804L22.053 20.0304L22.338 20.227L22.596 20.4598L22.8221 20.7262L23.0113 21.0236L23.1612 21.3469L23.3848 21.9858L23.5715 22.6427L23.7165 23.3049L23.8197 23.9825L23.8811 24.6602L23.9032 25.343L23.9278 25.5293L24.004 25.7026L24.1195 25.8448L24.2718 25.9457L24.4413 26H24.6232L24.7952 25.9457L24.9451 25.8448L25.0605 25.7026L25.1367 25.5293L25.1613 25.343L25.1367 24.5749L25.0679 23.8093L24.95 23.0514L24.7878 22.3039L24.5765 21.5668L24.3259 20.8477L24.1367 20.4313L23.9057 20.0407L23.6305 19.6838L23.3184 19.3605L22.9769 19.076L22.6034 18.838L22.2029 18.644L21.1733 18.2483L20.1266 17.894L19.0675 17.5862L17.9987 17.3249L16.9175 17.1103L16.7603 17.0611L16.6227 16.9706L16.5121 16.8464L16.4335 16.6964L16.3966 16.5283L16.3991 16.3602L16.4433 16.1947L16.5268 16.0472L16.7922 15.6618L17.0207 15.2532L17.404 14.4462L17.7431 13.6211L18.0404 12.7753L18.2935 11.9114L18.4999 11.0398L18.6621 10.1552L18.7776 9.26029L18.8489 8.36279L18.871 7.46269L18.8489 6.8859L18.7751 6.31171L18.6572 5.74785L18.4901 5.19693L18.2812 4.66412L18.0282 4.14941L17.7358 3.66315L17.3991 3.20534L17.0306 2.77857L16.6227 2.3906L16.1902 2.03884L15.7258 1.72587L15.2393 1.45947L14.7331 1.23962L14.2097 1.06373L13.6716 0.939584L13.1286 0.864576L12.5806 0.838711Z" fill="#26436C" stroke="#26436C" stroke-width="0.419355"/>
</g>
<defs>
<clipPath id="clip0_25_5241">
<rect width="26" height="26.8387" fill="white"/>
</clipPath>
</defs>
</svg>
