<svg width="30" height="31" viewBox="0 0 30 31" fill="none" xmlns="http://www.w3.org/2000/svg">
<path d="M25.3201 13.9751C25.1845 13.8239 24.9904 13.7372 24.7876 13.7372H23.4951C23.3835 13.7372 23.2929 13.8279 23.2929 13.9398C23.2929 14.0517 23.3835 14.1424 23.4951 14.1424H24.7876C24.8771 14.1424 24.9595 14.1792 25.0195 14.246C25.0796 14.3131 25.1075 14.3993 25.098 14.4889L23.8211 26.459C23.7936 26.7144 23.5802 26.9069 23.3246 26.9069H15.7393V23.303V21.732C15.7393 21.6201 15.6488 21.5293 15.5372 21.5293H13.0787C12.9671 21.5293 12.8766 21.6201 12.8766 21.732C12.8766 21.8438 12.9671 21.9346 13.0787 21.9346H15.3351V23.303C15.3351 24.4102 14.4364 25.3109 13.3318 25.3109H6.73635C5.63209 25.3109 4.73373 24.4101 4.73373 23.303V21.9346H13.0787C13.1903 21.9346 13.2481 21.8438 13.2481 21.732C13.2481 21.6201 13.1903 21.5293 13.0787 21.5293H7.28461L6.53373 14.4885C6.52406 14.3994 6.55172 14.3134 6.6116 14.2465C6.67166 14.1793 6.75428 14.1424 6.84422 14.1424H12.7989C12.7894 14.2496 12.7828 14.3312 12.7786 14.3834C12.7777 14.3945 12.7769 14.4043 12.7761 14.4145C12.4484 14.499 12.2051 14.7969 12.2051 15.1515V16.5388C12.2051 16.9585 12.5461 17.3 12.9652 17.3C13.3839 17.3 13.7246 16.9585 13.7246 16.5388V15.1515C13.7246 14.9484 13.6454 14.7572 13.5016 14.6132C13.4108 14.5221 13.3007 14.4575 13.181 14.4219C13.1812 14.4198 13.1813 14.4181 13.1815 14.416C13.1861 14.3589 13.1938 14.2655 13.2047 14.1424H18.8399C18.8509 14.2656 18.8586 14.359 18.8631 14.4162C18.8633 14.4185 18.8635 14.4204 18.8637 14.4225C18.5508 14.5169 18.3201 14.8101 18.3201 15.1514V16.5387C18.3201 16.9584 18.6607 17.2999 19.0795 17.2999C19.208 17.2999 19.3291 17.2676 19.4353 17.2109V20.3441C19.0278 20.4337 18.723 20.7883 18.7103 21.2252L18.6503 23.3892C18.6489 23.4438 18.6694 23.4968 18.7076 23.5361C18.7455 23.5753 18.7979 23.5974 18.8525 23.5974H20.4225C20.4771 23.5974 20.5293 23.5753 20.5674 23.5361C20.6055 23.4968 20.6261 23.4438 20.6246 23.3892L20.5647 21.2252C20.558 20.9818 20.4582 20.7544 20.284 20.5852C20.1594 20.4635 20.0059 20.3817 19.8397 20.3447V15.8451V15.1514C19.8397 14.9483 19.7605 14.7571 19.6168 14.6131C19.5189 14.515 19.399 14.4477 19.2688 14.4142C19.268 14.4043 19.2672 14.3945 19.2663 14.3836C19.2622 14.3312 19.2554 14.2496 19.246 14.1424H21.2997C24.063 14.1424 24.7092 14.1424 24.5679 13.8525C24.5679 13.7406 23.6067 13.7372 23.4951 13.7372H19.2086C18.9873 11.412 18.3084 5.79101 16.7846 3.77619C16.6038 3.53704 16.326 3.39984 16.0224 3.39984C15.7189 3.3999 15.4411 3.53704 15.2603 3.77619C13.7363 5.79125 13.0575 11.4124 12.8363 13.7372H6.84422C6.6409 13.7372 6.44642 13.8241 6.31072 13.9759C6.17513 14.1273 6.10992 14.3301 6.13177 14.532L6.87803 21.5293H4.53164C4.42002 21.5293 4.32949 21.62 4.32949 21.7319V23.3029V27.1095C4.32949 27.2214 4.42002 27.312 4.53164 27.312H15.5372H23.3246C23.7872 27.312 24.1734 26.964 24.2231 26.5023L25.5 14.5319C25.5215 14.3294 25.4559 14.1265 25.3201 13.9751ZM19.6374 20.7269C19.7743 20.7269 19.9037 20.7796 20.0021 20.8758C20.1005 20.9713 20.1567 21.0994 20.1604 21.2364L20.2147 23.1922H19.0603L19.1145 21.2367C19.1228 20.9509 19.3525 20.7269 19.6374 20.7269ZM19.0817 14.7948C19.1755 14.7954 19.2639 14.8326 19.3308 14.8996C19.3982 14.9671 19.4353 15.0566 19.4353 15.1514V15.8451V16.5388C19.4353 16.7351 19.2756 16.8948 19.0795 16.8948C18.8837 16.8948 18.7244 16.7351 18.7244 16.5388V15.1515C18.7244 14.9599 18.8793 14.8002 19.0697 14.7955C19.0737 14.7954 19.0777 14.7952 19.0817 14.7948ZM15.5824 4.02098C15.6862 3.88378 15.8465 3.80514 16.0223 3.80509C16.1982 3.80509 16.3586 3.88378 16.4624 4.02104C17.954 5.99328 18.6264 11.9032 18.8024 13.7373H13.2425C13.4184 11.9037 14.0906 5.99358 15.5824 4.02098ZM12.9632 14.7948C12.9673 14.7952 12.9714 14.7954 12.9754 14.7955C13.0655 14.7975 13.1508 14.8345 13.2158 14.8996C13.2832 14.9671 13.3203 15.0566 13.3203 15.1514V16.5387C13.3203 16.735 13.161 16.8947 12.9652 16.8947C12.769 16.8947 12.6094 16.735 12.6094 16.5387V15.1514C12.6095 14.9561 12.767 14.7969 12.9632 14.7948ZM15.3351 26.9069H4.73373V24.6398C5.16574 25.2882 5.90197 25.7161 6.73635 25.7161H13.3318C14.1664 25.7161 14.903 25.2881 15.335 24.6396L15.3351 26.9069Z" fill="#26436C"/>
<path d="M23.4951 13.7372H24.7876C24.9904 13.7372 25.1845 13.8239 25.3201 13.9751C25.4559 14.1265 25.5215 14.3294 25.5 14.5319L24.2231 26.5023C24.1734 26.964 23.7872 27.312 23.3246 27.312H15.5372H4.53164C4.42002 27.312 4.32949 27.2214 4.32949 27.1095V23.3029V21.7319C4.32949 21.62 4.42002 21.5293 4.53164 21.5293H6.87803L6.13177 14.532C6.10992 14.3301 6.17513 14.1273 6.31072 13.9759C6.44642 13.8241 6.6409 13.7372 6.84422 13.7372H12.8363C13.0575 11.4124 13.7363 5.79125 15.2603 3.77619C15.4411 3.53704 15.7189 3.3999 16.0224 3.39984C16.326 3.39984 16.6038 3.53704 16.7846 3.77619C18.3084 5.79101 18.9873 11.412 19.2086 13.7372H23.4951ZM23.4951 13.7372C23.3835 13.7372 23.2929 13.8279 23.2929 13.9398C23.2929 14.0517 23.3835 14.1424 23.4951 14.1424H24.7876C24.8771 14.1424 24.9595 14.1792 25.0195 14.246C25.0796 14.3131 25.1075 14.3993 25.098 14.4889L23.8211 26.459C23.7936 26.7144 23.5802 26.9069 23.3246 26.9069H15.7393V23.303V21.732C15.7393 21.6201 15.6488 21.5293 15.5372 21.5293H13.0787M23.4951 13.7372C23.6067 13.7372 24.5679 13.7406 24.5679 13.8525C24.7092 14.1424 24.063 14.1424 21.2997 14.1424H19.246C19.2554 14.2496 19.2622 14.3312 19.2663 14.3836C19.2672 14.3945 19.268 14.4043 19.2688 14.4142C19.399 14.4477 19.5189 14.515 19.6168 14.6131C19.7605 14.7571 19.8397 14.9483 19.8397 15.1514V15.8451V20.3447C20.0059 20.3817 20.1594 20.4635 20.284 20.5852C20.4582 20.7544 20.558 20.9818 20.5647 21.2252L20.6246 23.3892C20.6261 23.4438 20.6055 23.4968 20.5674 23.5361C20.5293 23.5753 20.4771 23.5974 20.4225 23.5974H18.8525C18.7979 23.5974 18.7455 23.5753 18.7076 23.5361C18.6694 23.4968 18.6489 23.4438 18.6503 23.3892L18.7103 21.2252C18.723 20.7883 19.0278 20.4337 19.4353 20.3441V17.2109C19.3291 17.2676 19.208 17.2999 19.0795 17.2999C18.6607 17.2999 18.3201 16.9584 18.3201 16.5387V15.1514C18.3201 14.8101 18.5508 14.5169 18.8637 14.4225C18.8635 14.4204 18.8633 14.4185 18.8631 14.4162C18.8586 14.359 18.8509 14.2656 18.8399 14.1424H13.2047C13.1938 14.2655 13.1861 14.3589 13.1815 14.416C13.1813 14.4181 13.1812 14.4198 13.181 14.4219C13.3007 14.4575 13.4108 14.5221 13.5016 14.6132C13.6454 14.7572 13.7246 14.9484 13.7246 15.1515V16.5388C13.7246 16.9585 13.3839 17.3 12.9652 17.3C12.5461 17.3 12.2051 16.9585 12.2051 16.5388V15.1515C12.2051 14.7969 12.4484 14.499 12.7761 14.4145C12.7769 14.4043 12.7777 14.3945 12.7786 14.3834C12.7828 14.3312 12.7894 14.2496 12.7989 14.1424H6.84422C6.75428 14.1424 6.67166 14.1793 6.6116 14.2465C6.55172 14.3134 6.52406 14.3994 6.53373 14.4885L7.28461 21.5293H13.0787M13.0787 21.5293C12.9671 21.5293 12.8766 21.6201 12.8766 21.732C12.8766 21.8438 12.9671 21.9346 13.0787 21.9346M13.0787 21.5293C13.1903 21.5293 13.2481 21.6201 13.2481 21.732C13.2481 21.8438 13.1903 21.9346 13.0787 21.9346M13.0787 21.9346H15.3351V23.303C15.3351 24.4102 14.4364 25.3109 13.3318 25.3109H6.73635C5.63209 25.3109 4.73373 24.4101 4.73373 23.303V21.9346H13.0787ZM19.6374 20.7269C19.7743 20.7269 19.9037 20.7796 20.0021 20.8758C20.1005 20.9713 20.1567 21.0994 20.1604 21.2364L20.2147 23.1922H19.0603L19.1145 21.2367C19.1228 20.9509 19.3525 20.7269 19.6374 20.7269ZM19.0817 14.7948C19.1755 14.7954 19.2639 14.8326 19.3308 14.8996C19.3982 14.9671 19.4353 15.0566 19.4353 15.1514V15.8451V16.5388C19.4353 16.7351 19.2756 16.8948 19.0795 16.8948C18.8837 16.8948 18.7244 16.7351 18.7244 16.5388V15.1515C18.7244 14.9599 18.8793 14.8002 19.0697 14.7955C19.0737 14.7954 19.0777 14.7952 19.0817 14.7948ZM15.5824 4.02098C15.6862 3.88378 15.8465 3.80514 16.0223 3.80509C16.1982 3.80509 16.3586 3.88378 16.4624 4.02104C17.954 5.99328 18.6264 11.9032 18.8024 13.7373H13.2425C13.4184 11.9037 14.0906 5.99358 15.5824 4.02098ZM12.9632 14.7948C12.9673 14.7952 12.9714 14.7954 12.9754 14.7955C13.0655 14.7975 13.1508 14.8345 13.2158 14.8996C13.2832 14.9671 13.3203 15.0566 13.3203 15.1514V16.5387C13.3203 16.735 13.161 16.8947 12.9652 16.8947C12.769 16.8947 12.6094 16.735 12.6094 16.5387V15.1514C12.6095 14.9561 12.767 14.7969 12.9632 14.7948ZM15.3351 26.9069H4.73373V24.6398C5.16574 25.2882 5.90197 25.7161 6.73635 25.7161H13.3318C14.1664 25.7161 14.903 25.2881 15.335 24.6396L15.3351 26.9069Z" stroke="#26436C" stroke-width="0.5"/>
<path d="M22.1626 14.1415H22.2306C22.3422 14.1415 22.4327 14.051 22.4327 13.9393C22.4327 13.8277 22.3422 13.7372 22.2306 13.7372H22.1626C22.051 13.7372 21.9604 13.8277 21.9604 13.9393C21.9604 14.051 22.051 14.1415 22.1626 14.1415Z" fill="#26436C"/>
<path d="M11.7461 21.5293C11.6345 21.5293 11.5439 21.6198 11.5439 21.7314C11.5439 21.843 11.6344 21.9336 11.7461 21.9336H11.8141C11.9257 21.9336 12.0162 21.843 12.0162 21.7314C12.0162 21.6198 11.9257 21.5293 11.8141 21.5293H11.7461Z" fill="#26436C"/>
<path d="M9.28784 24.2181C9.17622 24.2181 9.08569 24.3086 9.08569 24.4203C9.08569 24.532 9.17622 24.6224 9.28784 24.6224H10.9468C11.0584 24.6224 11.149 24.532 11.149 24.4203C11.149 24.3086 11.0584 24.2181 10.9468 24.2181H9.28784Z" fill="#26436C"/>
</svg>
