<svg width="30" height="30" viewBox="0 0 30 30" fill="none" xmlns="http://www.w3.org/2000/svg">
<path d="M14.9999 5.03571C16.0148 5.03571 16.9881 5.45902 17.7057 6.21252C18.4233 6.96601 18.8265 7.98797 18.8265 9.05357V9.85714H11.1734V9.05357C11.1734 7.98797 11.5766 6.96601 12.2942 6.21252C13.0118 5.45902 13.9851 5.03571 14.9999 5.03571ZM20.3571 9.85714V9.05357C20.3571 7.56173 19.7927 6.13099 18.788 5.07609C17.7833 4.0212 16.4207 3.42857 14.9999 3.42857C13.5791 3.42857 12.2165 4.0212 11.2119 5.07609C10.2072 6.13099 9.64279 7.56173 9.64279 9.05357V9.85714H4.28564V25.9286C4.28564 26.781 4.60817 27.5986 5.18226 28.2014C5.75635 28.8042 6.53498 29.1429 7.34687 29.1429H22.653C23.4649 29.1429 24.2435 28.8042 24.8176 28.2014C25.3917 27.5986 25.7142 26.781 25.7142 25.9286V9.85714H20.3571ZM5.81626 11.4643H24.1836V25.9286C24.1836 26.3548 24.0223 26.7636 23.7353 27.065C23.4483 27.3664 23.0589 27.5357 22.653 27.5357H7.34687C6.94093 27.5357 6.55161 27.3664 6.26456 27.065C5.97752 26.7636 5.81626 26.3548 5.81626 25.9286V11.4643Z" fill="#26436C"/>
</svg>
