<svg width="30" height="32" viewBox="0 0 30 32" fill="none" xmlns="http://www.w3.org/2000/svg">
<g clip-path="url(#clip0_17_5089)">
<path d="M23.1637 8.708C23.2509 8.61502 23.32 8.50464 23.3672 8.38316C23.4144 8.26169 23.4386 8.13148 23.4386 8C23.4386 7.86851 23.4144 7.73831 23.3672 7.61683C23.32 7.49535 23.2509 7.38497 23.1637 7.292C23.0765 7.19902 22.9731 7.12527 22.8592 7.07495C22.7453 7.02463 22.6232 6.99873 22.5 6.99873C22.3767 6.99873 22.2546 7.02463 22.1407 7.07495C22.0269 7.12527 21.9234 7.19902 21.8362 7.292L9.37496 20.586L3.47621 14.292C3.38905 14.199 3.28557 14.1253 3.17168 14.0749C3.0578 14.0246 2.93573 13.9987 2.81246 13.9987C2.56351 13.9987 2.32475 14.1042 2.14871 14.292C1.97268 14.4798 1.87378 14.7344 1.87378 15C1.87378 15.2655 1.97268 15.5202 2.14871 15.708L8.71121 22.708C8.7983 22.8011 8.90175 22.875 9.01565 22.9254C9.12955 22.9758 9.25165 23.0018 9.37496 23.0018C9.49828 23.0018 9.62038 22.9758 9.73428 22.9254C9.84817 22.875 9.95163 22.8011 10.0387 22.708L23.1637 8.708ZM15.2737 22.708L13.5937 20.914L14.9193 19.5L15.9375 20.586L28.3987 7.292C28.5748 7.10422 28.8135 6.99873 29.0625 6.99873C29.3114 6.99873 29.5502 7.10422 29.7262 7.292C29.9023 7.47977 30.0011 7.73445 30.0011 8C30.0011 8.26555 29.9023 8.52022 29.7262 8.708L16.6012 22.708C16.5141 22.8011 16.4107 22.875 16.2968 22.9254C16.1829 22.9758 16.0608 23.0018 15.9375 23.0018C15.8141 23.0018 15.692 22.9758 15.5782 22.9254C15.4643 22.875 15.3608 22.8011 15.2737 22.708Z" fill="#26436C"/>
<path d="M10.0387 14.292L11.7187 16.086L10.3931 17.5L8.71121 15.708C8.53518 15.5202 8.43628 15.2655 8.43628 15C8.43628 14.7344 8.53518 14.4798 8.71121 14.292C8.88725 14.1042 9.12601 13.9987 9.37496 13.9987C9.62392 13.9987 9.86268 14.1042 10.0387 14.292Z" fill="#26436C"/>
</g>
<defs>
<clipPath id="clip0_17_5089">
<rect width="30" height="32" fill="white"/>
</clipPath>
</defs>
</svg>
