<svg width="30" height="31" viewBox="0 0 30 31" fill="none" xmlns="http://www.w3.org/2000/svg">
<g clip-path="url(#clip0_15_5002)">
<path d="M23.7255 21.4959C23.3627 20.4722 22.9063 19.6452 22.436 18.9159C22.0829 18.369 21.7227 17.8758 21.3859 17.392C20.8794 16.6646 20.4266 15.9606 20.0971 15.1114C19.7684 14.2623 19.5574 13.2619 19.5565 11.925C19.5565 11.706 19.5892 11.4894 19.6481 11.2708C19.7514 10.8884 19.9399 10.5011 20.1732 10.1133C20.5228 9.53017 20.9706 8.9522 21.3462 8.36525C21.5337 8.07083 21.7036 7.77324 21.8309 7.46243C21.9574 7.15245 22.042 6.82608 22.042 6.4838C22.0424 6.03415 21.9209 5.60477 21.7094 5.22431C21.3912 4.65333 20.8759 4.18889 20.2476 3.86563C20.0175 3.74741 19.7715 3.64821 19.5131 3.56927V0.124115H18.6473V3.39103C18.4599 3.36965 18.2685 3.35837 18.0742 3.35837C17.3543 3.35837 16.6771 3.50814 16.0904 3.77419C15.676 3.96242 15.3069 4.20979 15 4.50586C14.6931 4.20985 14.324 3.96248 13.9096 3.77419C13.3228 3.50814 12.6456 3.35837 11.9258 3.35837C11.7314 3.35837 11.5397 3.36965 11.3523 3.39103V0.124115H10.4869V3.56957C9.99333 3.7201 9.54474 3.94609 9.16481 4.2347C8.80271 4.51009 8.50241 4.84338 8.29054 5.2242C8.07866 5.60465 7.95761 6.03404 7.95796 6.48368C7.95796 6.74392 8.00724 6.99634 8.0864 7.23826C8.22573 7.66147 8.4539 8.05744 8.70808 8.44911C9.08987 9.0349 9.53612 9.61328 9.87608 10.1959C10.046 10.4869 10.1897 10.7774 10.2886 11.0653C10.388 11.3535 10.4434 11.6379 10.4434 11.9249C10.4434 12.7169 10.3685 13.3913 10.2397 13.9857C10.0138 15.025 9.62536 15.8231 9.15116 16.5848C8.79608 17.155 8.39056 17.7023 7.9773 18.2997C7.35796 19.1948 6.72304 20.2053 6.25159 21.56C5.77968 22.9148 5.472 24.6072 5.47241 26.8725V27.0367L5.58028 27.1604C5.62218 27.2094 5.91128 27.5147 6.60942 27.8014C7.30833 28.0889 8.41312 28.3588 10.0946 28.3584C10.5552 28.3596 10.915 28.4561 11.2553 28.6073C11.5098 28.7213 11.7528 28.8691 12.0034 29.0337C12.3799 29.2799 12.7734 29.5665 13.2545 29.7976C13.4951 29.9128 13.7579 30.0131 14.0477 30.0831C14.3372 30.1539 14.6535 30.1944 15 30.1944C15.6158 30.1951 16.1366 30.0645 16.5817 29.8723C16.9158 29.7284 17.2081 29.5526 17.4785 29.3775C17.8837 29.1138 18.2415 28.8532 18.6183 28.6673C18.8069 28.5739 19.0001 28.4976 19.2097 28.444C19.4196 28.3903 19.6462 28.3589 19.9055 28.3584C21.5869 28.3589 22.6917 28.0889 23.3906 27.8014C24.0891 27.5147 24.3778 27.2094 24.4198 27.1604L24.5276 27.0367V26.8725C24.528 24.5715 24.2105 22.8612 23.7255 21.4959ZM22.862 27.0686C22.2667 27.281 21.3261 27.4844 19.9055 27.4844C19.3175 27.4832 18.8177 27.6163 18.3893 27.8092C18.0672 27.9535 17.7843 28.1282 17.5189 28.3024C17.1207 28.5646 16.7606 28.8224 16.3699 29.0088C16.1739 29.1025 15.9705 29.1792 15.747 29.2336C15.5231 29.288 15.279 29.3199 15 29.3199C14.5041 29.3191 14.1176 29.2207 13.7621 29.0686C13.4959 28.9543 13.2475 28.8073 12.9957 28.6439C12.6173 28.3996 12.2331 28.1149 11.7686 27.8838C11.5365 27.7687 11.2843 27.6676 11.0061 27.5968C10.7282 27.5252 10.4251 27.4844 10.0945 27.4844C8.5054 27.4844 7.51739 27.2296 6.94071 26.9923C6.65196 26.874 6.46575 26.7597 6.35671 26.6811C6.35284 26.6784 6.34968 26.6761 6.34622 26.6733C6.36444 24.555 6.66251 23.0112 7.09593 21.7887C7.43202 20.8423 7.84956 20.0842 8.29657 19.3903C8.63185 18.8703 8.98423 18.3872 9.32917 17.8921C9.84567 17.1499 10.3467 16.3789 10.7157 15.4283C11.0848 14.4777 11.316 13.3539 11.3153 11.9249C11.3153 11.6191 11.2699 11.3239 11.1934 11.0415C11.0587 10.5464 10.8309 10.0905 10.5737 9.66185C10.1872 9.02004 9.732 8.4339 9.38818 7.89399C9.21626 7.62482 9.07265 7.36811 8.97603 7.13125C8.87899 6.89362 8.82972 6.67884 8.82972 6.48362C8.83013 6.19038 8.90659 5.91264 9.05243 5.64964C9.27017 5.25638 9.65085 4.89971 10.1499 4.6434C10.4281 4.50022 10.7428 4.39016 11.0812 4.3198H11.3521V4.27311C11.5379 4.24744 11.7292 4.23223 11.9256 4.23223C12.5243 4.23223 13.0808 4.35791 13.55 4.57064C14.0192 4.78301 14.3984 5.08248 14.6502 5.42171L15 5.89091L15.3492 5.42183C15.6015 5.0826 15.9806 4.78313 16.4498 4.57075C16.9185 4.35797 17.4754 4.23235 18.0742 4.23235C18.2702 4.23235 18.4615 4.24633 18.6473 4.27205V4.31986H18.9237C19.4623 4.43309 19.9388 4.64928 20.3079 4.93095C20.5849 5.14174 20.8018 5.38759 20.9474 5.6497C21.0933 5.91264 21.1697 6.19038 21.1701 6.48368C21.1701 6.63262 21.1418 6.79214 21.0848 6.96522C20.9866 7.26862 20.798 7.60938 20.5617 7.97146C20.2077 8.51642 19.751 9.10643 19.3715 9.75406C19.1821 10.0785 19.0117 10.4188 18.8872 10.7801C18.7631 11.1408 18.6846 11.5234 18.6846 11.9249C18.6846 12.7721 18.7649 13.5111 18.9081 14.1712C19.1576 15.3267 19.602 16.2358 20.1092 17.0479C20.4895 17.6578 20.904 18.2156 21.306 18.7975C21.9098 19.6711 22.4884 20.5961 22.9249 21.8478C23.3471 23.0614 23.6359 24.5892 23.6537 26.6733C23.524 26.7684 23.2765 26.9201 22.862 27.0686Z" fill="#26436C"/>
</g>
<defs>
<clipPath id="clip0_15_5002">
<rect width="30" height="30.0703" fill="white" transform="translate(0 0.124115)"/>
</clipPath>
</defs>
</svg>
