<svg width="27" height="22" viewBox="0 0 27 22" fill="none" xmlns="http://www.w3.org/2000/svg">
<path d="M24.4688 0.375H2.53125C1.85992 0.375 1.21609 0.641685 0.741386 1.11639C0.266684 1.59109 0 2.23492 0 2.90625L0 18.0938C0 18.7651 0.266684 19.4089 0.741386 19.8836C1.21609 20.3583 1.85992 20.625 2.53125 20.625H13.5V18.9375H2.53125C2.30747 18.9375 2.09286 18.8486 1.93463 18.6904C1.77639 18.5321 1.6875 18.3175 1.6875 18.0938V3.10031L13.0106 11.1834C13.1535 11.2852 13.3246 11.3399 13.5 11.3399C13.6754 11.3399 13.8465 11.2852 13.9894 11.1834L25.3125 3.10031V11.3438H27V2.90625C27 2.23492 26.7333 1.59109 26.2586 1.11639C25.7839 0.641685 25.1401 0.375 24.4688 0.375ZM13.5 9.46219L3.13875 2.0625H23.8612L13.5 9.46219Z" fill="#26436C"/>
<path d="M20.4941 12.4322L17.1191 15.8072L18.3088 16.9969L20.2495 15.0647V21.4687H21.937V15.0647L23.8691 16.9969L25.0588 15.8072L21.6838 12.4322C21.5257 12.275 21.3119 12.1868 21.089 12.1868C20.8661 12.1868 20.6522 12.275 20.4941 12.4322Z" fill="#26436C"/>
</svg>
