<svg width="27" height="25" viewBox="0 0 27 25" fill="none" xmlns="http://www.w3.org/2000/svg">
<path fill-rule="evenodd" clip-rule="evenodd" d="M5.49338 2.46262C3.41 3.45074 1.88372 5.80103 1.88372 8.60367C1.88372 11.4669 3.01297 13.6739 4.63181 15.5653C5.96602 17.1241 7.58115 18.4161 9.1563 19.6761C9.53042 19.9754 9.90228 20.2729 10.2676 20.5717C10.9282 21.1121 11.5174 21.5862 12.0855 21.9306C12.6537 22.2753 13.1112 22.4326 13.5 22.4326C13.8888 22.4326 14.3463 22.2753 14.9145 21.9306C15.4826 21.5862 16.0718 21.1121 16.7325 20.5717C17.0978 20.2729 17.4696 19.9754 17.8437 19.6761C19.4189 18.4161 21.034 17.1241 22.3682 15.5653C23.9871 13.6739 25.1163 11.4669 25.1163 8.60367C25.1163 5.80103 23.59 3.45074 21.5066 2.46262C19.4826 1.50267 16.763 1.75689 14.1786 4.54297C14.0011 4.73437 13.7561 4.84252 13.5 4.84252C13.2439 4.84252 12.9989 4.73437 12.8214 4.54297C10.237 1.75689 7.51739 1.50267 5.49338 2.46262ZM13.5 2.50774C10.5965 -0.187672 7.34521 -0.56473 4.71026 0.68499C1.92731 2.0049 0 5.06977 0 8.60367C0 12.0769 1.39458 14.7266 3.22332 16.8632C4.68779 18.5742 6.48028 20.0063 8.06337 21.271C8.42223 21.5577 8.77033 21.8359 9.10141 22.1067C9.74468 22.6328 10.4352 23.1939 11.1351 23.6182C11.8347 24.0423 12.633 24.3871 13.5 24.3871C14.367 24.3871 15.1653 24.0423 15.8649 23.6182C16.5648 23.1939 17.2553 22.6328 17.8986 22.1067C18.2296 21.8359 18.5778 21.5577 18.9367 21.271C20.5198 20.0063 22.3122 18.5742 23.7767 16.8632C25.6054 14.7266 27 12.0769 27 8.60367C27 5.06977 25.0727 2.0049 22.2897 0.68499C19.6547 -0.56473 16.4036 -0.187672 13.5 2.50774Z" fill="#26436C"/>
</svg>
