<svg width="29" height="29" viewBox="0 0 29 29" fill="none" xmlns="http://www.w3.org/2000/svg">
<path d="M21.6655 16.8035C21.6664 16.8035 21.6668 16.8035 21.6677 16.8035C21.6686 16.8035 21.6695 16.8026 21.6704 16.8026L21.6655 16.8035Z" fill="black"/>
<path d="M21.6718 16.8021C21.6711 16.8021 21.6707 16.8025 21.6699 16.8025L21.6777 16.8014L21.6718 16.8021Z" fill="black"/>
<path d="M25.941 1.21465L24.9924 0.406573L24.9917 0.405708C24.6812 0.142294 24.3031 0.000370397 23.9147 0C23.8364 0.000370397 23.7535 0.00586456 23.6676 0.0202483C23.2002 0.09334 22.7784 0.370273 22.4956 0.791229L14.747 12.3211L14.7348 12.3414C14.3099 13.0469 13.9311 13.5438 13.534 13.9061C13.1357 14.2679 12.713 14.5154 12.1259 14.7125C11.5912 14.8903 11.1237 14.9811 10.7118 14.9806C10.3706 14.9802 10.0666 14.9219 9.76511 14.7949C9.46417 14.667 9.16167 14.4677 8.83933 14.1586L8.70064 14.0248C8.39703 13.7326 8.01507 13.5844 7.63806 13.5849C7.26065 13.5844 6.87758 13.733 6.57358 14.0269L1.43698 18.9896C0.987402 19.427 0.648785 19.9801 0.402129 20.553C0.159196 21.1303 0.00416742 21.7176 0 22.3062C0.000333394 22.3919 0.00377847 22.4788 0.0125578 22.5675C0.0631226 23.092 0.190035 23.4872 0.33106 23.765C0.471308 24.0432 0.622558 24.1994 0.696627 24.2619L0.906776 24.4418H13.3508C14.1048 24.4413 14.8105 24.1724 15.4102 23.751C16.011 23.3279 16.5142 22.7516 16.884 22.0896L16.887 22.0845L21.292 13.8496L21.5835 24.4418H25.9064L25.8369 23.5061C25.8156 23.2165 25.8049 22.902 25.8049 22.5684C25.8042 21.2963 25.9581 19.7463 26.1941 18.1545C26.5472 15.7648 27.0815 13.2737 27.5269 11.3872C27.7496 10.4436 27.9499 9.65063 28.0947 9.0946C28.1669 8.81637 28.225 8.59765 28.2653 8.44906C28.2851 8.37474 28.3006 8.3177 28.3109 8.27979L28.3265 8.22361L28.3406 8.17336L28.3489 8.12182C28.4166 7.70216 28.4496 7.28077 28.4496 6.86364C28.4496 4.67311 27.5387 2.57549 25.941 1.21465ZM25.5476 13.0478C25.225 14.5505 24.902 16.2249 24.658 17.8742C24.4144 19.5246 24.2486 21.1463 24.2482 22.5684C24.2482 22.6182 24.2529 22.663 24.2532 22.7124H23.0934L22.8444 13.6689H22.8429C22.8323 12.927 22.3881 12.2781 21.7431 12.0746C21.6044 12.0302 21.4641 12.0096 21.3273 12.0096C20.8116 12.0091 20.3191 12.303 20.0379 12.8093L20.0349 12.8143L15.5584 21.1831C15.3121 21.6243 14.9659 22.0178 14.5783 22.2893C14.1887 22.5625 13.7665 22.7128 13.3507 22.7124H1.61629C1.59501 22.6292 1.57451 22.522 1.56006 22.3809L1.55662 22.3062C1.55278 22.0963 1.63869 21.6838 1.80816 21.2946C1.97425 20.9014 2.22013 20.5219 2.45839 20.2947L7.59499 15.332L7.63789 15.3142L7.68156 15.3324L7.82064 15.4662C8.25922 15.8881 8.72286 16.2047 9.21084 16.4107C9.69804 16.6176 10.2042 16.7105 10.7116 16.7101C11.3265 16.7097 11.941 16.5788 12.5719 16.3693C13.3175 16.1232 13.9625 15.7558 14.5226 15.2416C15.0764 14.7354 15.5423 14.1037 16.0082 13.3348L23.7429 1.82562C23.7771 1.77457 23.8284 1.74074 23.8854 1.73191L23.8915 1.73111L23.9147 1.72982C23.9607 1.72945 24.0074 1.74673 24.0462 1.77963L24.0454 1.77877L24.994 2.58691C26.2033 3.61668 26.893 5.2055 26.893 6.86358C26.893 7.16712 26.8683 7.47368 26.8212 7.77932C26.7171 8.15892 26.134 10.316 25.5476 13.0478Z" fill="#26436C"/>
<path d="M19.7417 28.8569C19.7422 28.8569 19.7431 28.8574 19.7434 28.8578C19.7443 28.8578 19.7456 28.8578 19.7465 28.8583L19.7417 28.8569Z" fill="black"/>
</svg>
