<svg width="30" height="31" viewBox="0 0 30 31" fill="none" xmlns="http://www.w3.org/2000/svg">
<path d="M22.8057 25.605C22.6438 25.605 22.5127 25.7365 22.5127 25.8987C22.5127 26.0609 22.6438 26.1929 22.8057 26.1929C22.9675 26.1929 23.0986 26.0609 23.0986 25.8987C23.0986 25.7365 22.9675 25.605 22.8057 25.605Z" fill="#26436C" stroke="#26436C" stroke-width="0.5"/>
<path d="M14.9421 20.4116C14.7803 20.4116 14.6492 20.5436 14.6492 20.7059C14.6492 20.8681 14.7803 20.9995 14.9421 20.9995C15.104 20.9995 15.2351 20.8681 15.2351 20.7059C15.2351 20.5436 15.104 20.4116 14.9421 20.4116Z" fill="#26436C" stroke="#26436C" stroke-width="0.5"/>
<path d="M14.9421 15.806C14.7803 15.806 14.6492 15.9374 14.6492 16.0997C14.6492 16.2625 14.7803 16.3939 14.9421 16.3939C15.104 16.3939 15.2351 16.2625 15.2351 16.0997C15.2351 15.9375 15.104 15.806 14.9421 15.806Z" fill="#26436C" stroke="#26436C" stroke-width="0.5"/>
<path d="M7.19403 26.1929C7.35593 26.1929 7.487 26.0609 7.487 25.8987C7.487 25.7365 7.35593 25.605 7.19403 25.605C7.0322 25.605 6.90112 25.7365 6.90112 25.8987C6.90112 26.0609 7.03226 26.1929 7.19403 26.1929Z" fill="#26436C" stroke="#26436C" stroke-width="0.5"/>
<path d="M14.9421 25.605C15.1039 25.605 15.2351 25.4735 15.2351 25.3114C15.2351 25.1492 15.1039 25.0177 14.9421 25.0177C14.7803 25.0177 14.6492 25.1492 14.6492 25.3114C14.6492 25.4735 14.7803 25.605 14.9421 25.605Z" fill="#26436C" stroke="#26436C" stroke-width="0.5"/>
<path d="M14.6335 11.4941C14.6335 11.6563 14.7646 11.7883 14.9265 11.7883C15.0884 11.7883 15.22 11.6563 15.22 11.4941C15.22 11.3319 15.0884 11.2005 14.9265 11.2005C14.7646 11.2005 14.6335 11.3319 14.6335 11.4941Z" fill="#26436C" stroke="#26436C" stroke-width="0.5"/>
<path d="M25.6523 24.9888C24.8117 13.1525 22.5993 6.06359 22.577 5.99334C22.5742 5.98453 22.5709 5.9759 22.5669 5.96756C21.844 4.44555 19.2825 3.43766 18.9351 3.30681L18.5596 2.98285L17.3872 1.97174C17.3852 1.96998 17.3826 1.9691 17.3806 1.96739C17.3707 1.95952 17.3602 1.95271 17.349 1.94672C17.3455 1.94496 17.3424 1.94284 17.3389 1.94126C17.3246 1.93474 17.3096 1.92963 17.2937 1.92658C17.2909 1.92605 17.288 1.92616 17.2852 1.92569C17.2754 1.92423 17.2656 1.9227 17.2553 1.9227H13.5185C13.5082 1.9227 13.4985 1.92423 13.4886 1.92569C13.4858 1.92611 13.4829 1.92599 13.4801 1.92658C13.4642 1.92963 13.4492 1.93474 13.4349 1.94126C13.4313 1.94284 13.4281 1.94496 13.4247 1.94678C13.4135 1.95271 13.4031 1.95952 13.3932 1.96739C13.3912 1.96904 13.3887 1.96998 13.3866 1.97174L12.2143 2.98285L11.8387 3.30681C11.491 3.43778 8.92978 4.44566 8.20691 5.96756C8.20299 5.9759 8.19959 5.98453 8.19678 5.99334C8.19473 5.99986 7.43148 9.06932 7.12328 10.3022C7.09615 10.4107 7.27868 10.4595 7.38696 10.4867C6.91266 12.4888 7.37067 10.4867 7.38696 10.4867C7.47755 10.4867 7.49553 10.4787 7.51861 10.3867C7.79957 9.26254 8.5474 6.22762 8.57805 6.12925C9.27596 4.68676 11.9849 3.68457 12.0122 3.67459C12.0216 3.67112 12.0305 3.66654 12.0394 3.66178C11.7879 5.3476 12.1316 7.07887 12.1481 7.15974C12.1626 7.23127 12.2144 7.28942 12.2836 7.31197C12.3041 7.31861 12.3252 7.3219 12.3462 7.3219C12.3959 7.3219 12.4448 7.30346 12.4826 7.2688C12.6348 7.12914 12.8059 6.9987 12.9921 6.87901C13.0337 6.94796 13.0683 7.00545 13.0865 7.03676C14.0038 8.58532 14.4886 10.3767 14.4886 12.2174V28.6482C10.6471 28.4754 9.2476 27.2101 9.04685 27.0064C8.9357 26.5759 8.84154 25.2017 8.98932 21.1801L9.75016 8.09321L9.75139 8.07471C9.75848 7.96306 9.67393 7.86674 9.56248 7.85958C9.45162 7.85312 9.35494 7.93722 9.34785 8.04893L9.34686 8.06526L9.34662 8.06848L9.3465 8.06948C9.33308 8.24973 8.79098 15.6014 8.58543 21.1596L8.37379 24.8005H5.54066C6.00801 18.3819 6.87215 13.4257 7.51861 10.3867C7.54187 10.2772 7.47226 10.1696 7.3631 10.1463C7.25359 10.1228 7.14654 10.1927 7.12328 10.3022C6.4668 13.3881 5.58648 18.4411 5.12148 24.9888C5.07654 25.6222 5.0357 26.2657 5.00008 26.9012C4.99697 26.9563 5.01648 27.0102 5.05398 27.0506C5.09148 27.091 5.14381 27.1144 5.19889 27.1152L7.74613 27.1535C7.75088 27.1536 7.75551 27.1536 7.76025 27.1536C8.1148 27.1536 8.42412 26.9558 8.58244 26.6611C8.60652 26.8819 8.63652 27.0511 8.67244 27.1682C8.68035 27.1938 8.69318 27.2177 8.71029 27.2382C8.76701 27.3063 10.1496 28.9086 14.6817 29.0622L14.6849 29.0624C14.6849 29.0624 14.6888 29.063 14.6908 29.063H14.6956C14.7412 29.0648 14.7869 29.0655 14.8327 29.0666C14.8592 29.0673 14.8852 29.068 14.9119 29.0686L14.9147 29.0687L14.9177 29.0688C15.001 29.0712 15.0848 29.0724 15.1683 29.0729H15.1707C15.2035 29.0735 15.2363 29.0735 15.2692 29.0735C15.3081 29.0741 15.3476 29.0741 15.387 29.0741C15.4448 29.0741 15.5018 29.0741 15.5596 29.0735L15.5625 29.0734L15.6863 29.0718C15.7852 29.0706 15.8825 29.0683 15.9783 29.0659L16.0973 29.0623C16.9546 29.0331 17.7604 28.9487 18.4908 28.8116C18.6521 28.7695 21.0723 28.0739 21 27.9836C20.9794 27.8736 20.883 27.6368 20.7729 27.6576C20.1007 27.9982 17.0269 28.826 16.2934 28.6484V12.2173C16.2934 10.3767 16.7783 8.58532 17.6958 7.03641C17.7135 7.00633 17.7469 6.95042 17.7874 6.88318C17.9694 7.0004 18.1387 7.12926 18.2916 7.26904C18.3295 7.30357 18.3782 7.3219 18.4278 7.3219C18.4487 7.3219 18.47 7.31861 18.4905 7.31191C18.5597 7.2893 18.6113 7.23116 18.6259 7.15974C18.6423 7.07887 18.9861 5.3476 18.7346 3.66178C18.7434 3.6666 18.7524 3.67112 18.7618 3.67459C18.7892 3.68451 21.4972 4.68511 22.1959 6.12919C22.3033 6.47617 24.4022 13.3849 25.2333 24.8005H22.4L22.1884 21.1606C21.9819 15.5719 21.4347 8.1685 21.4271 8.06637C21.4263 8.05169 21.4256 8.043 21.4256 8.043C21.4145 7.93229 21.3171 7.85124 21.2059 7.86122C21.0954 7.87138 21.0137 7.96882 21.0229 8.07964L21.7846 21.1804C21.9323 25.2025 21.8383 26.5763 21.727 27.0065C21.6419 27.0937 21.3471 27.3685 20.7535 27.6674C20.6537 27.7176 20.6134 27.8393 20.6636 27.9393C20.699 28.0101 20.7703 28.0511 20.8444 28.0511C20.8749 28.0511 20.9058 28.0441 20.9349 28.0294C21.7357 27.6263 22.0506 27.2538 22.0636 27.2381C22.0808 27.2175 22.0937 27.1937 22.1015 27.1681C22.1375 27.051 22.1674 26.8819 22.1915 26.6611C22.3499 26.9557 22.6591 27.1536 23.0138 27.1536C23.0185 27.1536 23.0233 27.1536 23.0279 27.1535L25.575 27.1151C25.6301 27.1143 25.6824 27.091 25.72 27.0506C25.7575 27.0102 25.777 26.9562 25.7739 26.9011C25.738 26.2657 25.6972 25.6222 25.6523 24.9888ZM8.28965 26.2476C8.27301 26.5299 8.04109 26.7483 7.76008 26.7483C7.75744 26.7483 7.75469 26.7483 7.75199 26.7483L5.41574 26.713C5.44474 26.2112 5.47726 25.7062 5.51201 25.2057H8.35017L8.28965 26.2476ZM17.0149 2.32794L16.8057 3.53093H13.9681L13.7588 2.32794H17.0149ZM16.7352 3.93617L16.3669 6.05419C16.2929 6.17288 16.2185 6.29293 16.1678 6.37668C15.8665 6.86855 15.6065 7.38415 15.391 7.91479C15.1741 7.38245 14.9138 6.8665 14.6132 6.37486C14.5826 6.32594 14.5445 6.26445 14.5036 6.19814C14.4715 6.14616 14.4377 6.09148 14.4041 6.03745L14.0386 3.93617H16.7352ZM12.9585 6.4246C12.7913 6.52139 12.6336 6.62635 12.4869 6.73811C12.3883 6.07674 12.2249 4.56824 12.5278 3.24708L13.3804 2.51165L13.6 3.77413L13.9837 5.98031C13.9761 5.9826 13.9684 5.98489 13.9603 5.98735L13.9592 5.98765L13.955 5.98894C13.9483 5.99093 13.9415 5.99299 13.9345 5.9954C13.8297 6.02747 13.7101 6.07005 13.5879 6.11885C13.5683 6.12672 13.5483 6.13506 13.5231 6.14557C13.3259 6.22786 13.1359 6.32177 12.9585 6.4246ZM15.7712 28.6647C15.7409 28.6653 15.7116 28.6661 15.681 28.6665L15.5577 28.6682C15.5016 28.6688 15.4455 28.6688 15.3889 28.6688C15.3503 28.6691 15.3108 28.6688 15.2691 28.6682C15.2373 28.6682 15.206 28.6682 15.1732 28.6676C15.0907 28.667 15.0099 28.6659 14.9271 28.6636L14.9211 28.6634C14.9117 28.6632 14.9024 28.6629 14.893 28.6627V12.2173C14.893 10.3039 14.3886 8.44096 13.4348 6.83091C13.417 6.80037 13.3834 6.74434 13.3422 6.67621C13.4512 6.61994 13.565 6.56703 13.6837 6.51752C13.702 6.50988 13.7202 6.50225 13.7379 6.49514C13.8812 6.438 13.9905 6.40193 14.0569 6.38173L14.079 6.37474C14.0963 6.3694 14.1129 6.36446 14.128 6.36006C14.1388 6.37744 14.1494 6.39465 14.1599 6.41157C14.2012 6.47864 14.2397 6.54089 14.2696 6.58858C14.6477 7.2069 14.9606 7.86704 15.1996 8.55061L15.2007 8.55489C15.5793 9.64054 15.7712 10.7779 15.7712 11.9354V28.6647ZM17.3477 6.82979C16.7114 7.90404 16.2752 9.09011 16.055 10.3286C15.9604 9.70344 15.8102 9.08817 15.6054 8.48794C15.8387 7.82933 16.1437 7.19069 16.5127 6.58776C16.5498 6.52656 16.5994 6.44634 16.652 6.36159C16.7598 6.39342 16.8681 6.43024 16.972 6.47012L16.9738 6.47083L16.9754 6.47141L17.0184 6.48827C17.0239 6.49044 17.0294 6.4925 17.0349 6.49473C17.0459 6.49937 17.0569 6.50395 17.068 6.50824C17.0923 6.51875 17.1165 6.52903 17.1377 6.53772C17.1406 6.53895 17.1433 6.54007 17.1462 6.5413L17.1971 6.56386C17.2127 6.57061 17.2282 6.57795 17.2441 6.58535L17.3511 6.63639C17.3673 6.64397 17.3836 6.65219 17.3992 6.66023C17.4119 6.66675 17.4246 6.67339 17.4371 6.67997C17.3975 6.74604 17.3652 6.80019 17.3477 6.82979ZM18.2867 6.73823C18.1415 6.62746 17.9866 6.52515 17.8248 6.43136L17.8208 6.42848L17.7629 6.39536C17.7416 6.38314 17.7203 6.37151 17.7019 6.3617L17.7004 6.36088C17.6614 6.34015 17.6225 6.31971 17.5845 6.3001C17.5642 6.28964 17.5434 6.27925 17.5251 6.27067L17.4708 6.24436C17.4572 6.23778 17.4437 6.23144 17.4303 6.22521L17.4152 6.21822C17.396 6.20924 17.3768 6.20025 17.3598 6.19291L17.3067 6.16936C17.2774 6.15679 17.2487 6.14446 17.2212 6.13306C17.2191 6.13218 17.2161 6.13101 17.214 6.13024C17.2067 6.12754 17.1991 6.12425 17.1872 6.11932C17.1704 6.11251 17.1532 6.10575 17.1366 6.09935L17.1239 6.09448L17.1194 6.09272C17.0108 6.05102 16.9003 6.0139 16.7901 5.98066L17.3934 2.51165L18.246 3.24708C18.5484 4.56665 18.3851 6.07651 18.2867 6.73823ZM23.0218 26.7483C22.7387 26.7516 22.501 26.5326 22.4841 26.2478L22.4235 25.2058H25.2617C25.2964 25.7063 25.3289 26.2112 25.358 26.7132L23.0218 26.7483Z" fill="#26436C"/>
<path d="M7.12328 10.3022C7.43148 9.06932 8.19473 5.99986 8.19678 5.99334C8.19959 5.98453 8.20299 5.9759 8.20691 5.96756C8.92978 4.44566 11.491 3.43778 11.8387 3.30681L12.2143 2.98285L13.3866 1.97174C13.3887 1.96998 13.3912 1.96904 13.3932 1.96739C13.4031 1.95952 13.4135 1.95271 13.4247 1.94678C13.4281 1.94496 13.4313 1.94284 13.4349 1.94126C13.4492 1.93474 13.4642 1.92963 13.4801 1.92658C13.4829 1.92599 13.4858 1.92611 13.4886 1.92569C13.4985 1.92423 13.5082 1.9227 13.5185 1.9227H17.2553C17.2656 1.9227 17.2754 1.92423 17.2852 1.92569C17.288 1.92616 17.2909 1.92605 17.2937 1.92658C17.3096 1.92963 17.3246 1.93474 17.3389 1.94126C17.3424 1.94284 17.3455 1.94496 17.349 1.94672C17.3602 1.95271 17.3707 1.95952 17.3806 1.96739C17.3826 1.9691 17.3852 1.96998 17.3872 1.97174L18.5596 2.98285L18.9351 3.30681C19.2825 3.43766 21.844 4.44555 22.5669 5.96756C22.5709 5.9759 22.5742 5.98453 22.577 5.99334C22.5993 6.06359 24.8117 13.1525 25.6523 24.9888C25.6972 25.6222 25.738 26.2657 25.7739 26.9011C25.777 26.9562 25.7575 27.0102 25.72 27.0506C25.6824 27.091 25.6301 27.1143 25.575 27.1151L23.0279 27.1535C23.0233 27.1536 23.0185 27.1536 23.0138 27.1536C22.6591 27.1536 22.3499 26.9557 22.1915 26.6611C22.1674 26.8819 22.1375 27.051 22.1015 27.1681C22.0937 27.1937 22.0808 27.2175 22.0636 27.2381C22.0506 27.2538 21.7357 27.6263 20.9349 28.0294C20.9058 28.0441 20.8749 28.0511 20.8444 28.0511C20.7703 28.0511 20.699 28.0101 20.6636 27.9393C20.6134 27.8393 20.6537 27.7176 20.7535 27.6674C21.3471 27.3685 21.6419 27.0937 21.727 27.0065C21.8383 26.5763 21.9323 25.2025 21.7846 21.1804L21.0229 8.07964C21.0137 7.96882 21.0954 7.87138 21.2059 7.86122C21.3171 7.85124 21.4145 7.93229 21.4256 8.043C21.4256 8.043 21.4263 8.05169 21.4271 8.06637C21.4347 8.1685 21.9819 15.5719 22.1884 21.1606L22.4 24.8005H25.2333C24.4022 13.3849 22.3033 6.47617 22.1959 6.12919C21.4972 4.68511 18.7892 3.68451 18.7618 3.67459C18.7524 3.67112 18.7434 3.6666 18.7346 3.66178C18.9861 5.3476 18.6423 7.07887 18.6259 7.15974C18.6113 7.23116 18.5597 7.2893 18.4905 7.31191C18.47 7.31861 18.4487 7.3219 18.4278 7.3219C18.3782 7.3219 18.3295 7.30357 18.2916 7.26904C18.1387 7.12926 17.9694 7.0004 17.7874 6.88318C17.7469 6.95042 17.7135 7.00633 17.6958 7.03641C16.7783 8.58532 16.2934 10.3767 16.2934 12.2173V28.6484C17.0269 28.826 20.1007 27.9982 20.7729 27.6576C20.883 27.6368 20.9794 27.8736 21 27.9836C21.0723 28.0739 18.6521 28.7695 18.4908 28.8116C17.7604 28.9487 16.9546 29.0331 16.0973 29.0623L15.9783 29.0659C15.8825 29.0683 15.7852 29.0706 15.6863 29.0718L15.5625 29.0734L15.5596 29.0735C15.5018 29.0741 15.4448 29.0741 15.387 29.0741C15.3476 29.0741 15.3081 29.0741 15.2692 29.0735C15.2363 29.0735 15.2035 29.0735 15.1707 29.0729H15.1683C15.0848 29.0724 15.001 29.0712 14.9177 29.0688L14.9147 29.0687L14.9119 29.0686C14.8852 29.068 14.8592 29.0673 14.8327 29.0666C14.7869 29.0655 14.7412 29.0648 14.6956 29.063H14.6908C14.6888 29.063 14.6849 29.0624 14.6849 29.0624L14.6817 29.0622C10.1496 28.9086 8.76701 27.3063 8.71029 27.2382C8.69318 27.2177 8.68035 27.1938 8.67244 27.1682C8.63652 27.0511 8.60652 26.8819 8.58244 26.6611C8.42412 26.9558 8.1148 27.1536 7.76025 27.1536C7.75551 27.1536 7.75088 27.1536 7.74613 27.1535L5.19889 27.1152C5.14381 27.1144 5.09148 27.091 5.05398 27.0506C5.01648 27.0102 4.99697 26.9563 5.00008 26.9012C5.0357 26.2657 5.07654 25.6222 5.12148 24.9888C5.58648 18.4411 6.4668 13.3881 7.12328 10.3022ZM7.12328 10.3022C7.09615 10.4107 7.27868 10.4595 7.38696 10.4867M7.12328 10.3022C7.14654 10.1927 7.25359 10.1228 7.3631 10.1463C7.47226 10.1696 7.54187 10.2772 7.51861 10.3867M7.38696 10.4867C6.91266 12.4888 7.37067 10.4867 7.38696 10.4867ZM7.38696 10.4867C7.47755 10.4867 7.49553 10.4787 7.51861 10.3867M7.51861 10.3867C7.79957 9.26254 8.5474 6.22762 8.57805 6.12925C9.27596 4.68676 11.9849 3.68457 12.0122 3.67459C12.0216 3.67112 12.0305 3.66654 12.0394 3.66178C11.7879 5.3476 12.1316 7.07887 12.1481 7.15974C12.1626 7.23127 12.2144 7.28942 12.2836 7.31197C12.3041 7.31861 12.3252 7.3219 12.3462 7.3219C12.3959 7.3219 12.4448 7.30346 12.4826 7.2688C12.6348 7.12914 12.8059 6.9987 12.9921 6.87901C13.0337 6.94796 13.0683 7.00545 13.0865 7.03676C14.0038 8.58532 14.4886 10.3767 14.4886 12.2174V28.6482C10.6471 28.4754 9.2476 27.2101 9.04685 27.0064C8.9357 26.5759 8.84154 25.2017 8.98932 21.1801L9.75016 8.09321L9.75139 8.07471C9.75848 7.96306 9.67393 7.86674 9.56248 7.85958C9.45162 7.85312 9.35494 7.93722 9.34785 8.04893L9.34686 8.06526L9.34662 8.06848L9.3465 8.06948C9.33308 8.24973 8.79098 15.6014 8.58543 21.1596L8.37379 24.8005H5.54066C6.00801 18.3819 6.87215 13.4257 7.51861 10.3867ZM8.28965 26.2476C8.27301 26.5299 8.04109 26.7483 7.76008 26.7483C7.75744 26.7483 7.75469 26.7483 7.75199 26.7483L5.41574 26.713C5.44474 26.2112 5.47726 25.7062 5.51201 25.2057H8.35017L8.28965 26.2476ZM17.0149 2.32794L16.8057 3.53093H13.9681L13.7588 2.32794H17.0149ZM16.7352 3.93617L16.3669 6.05419C16.2929 6.17288 16.2185 6.29293 16.1678 6.37668C15.8665 6.86855 15.6065 7.38415 15.391 7.91479C15.1741 7.38245 14.9138 6.8665 14.6132 6.37486C14.5826 6.32594 14.5445 6.26445 14.5036 6.19814C14.4715 6.14616 14.4377 6.09148 14.4041 6.03745L14.0386 3.93617H16.7352ZM12.9585 6.4246C12.7913 6.52139 12.6336 6.62635 12.4869 6.73811C12.3883 6.07674 12.2249 4.56824 12.5278 3.24708L13.3804 2.51165L13.6 3.77413L13.9837 5.98031C13.9761 5.9826 13.9684 5.98489 13.9603 5.98735L13.9592 5.98765L13.955 5.98894C13.9483 5.99094 13.9415 5.99299 13.9345 5.9954C13.8297 6.02747 13.7101 6.07005 13.5879 6.11885C13.5683 6.12672 13.5483 6.13506 13.5231 6.14557C13.3259 6.22786 13.1359 6.32177 12.9585 6.4246ZM15.7712 28.6647C15.7409 28.6653 15.7116 28.6661 15.681 28.6665L15.5577 28.6682C15.5016 28.6688 15.4455 28.6688 15.3889 28.6688C15.3503 28.6691 15.3108 28.6688 15.2691 28.6682C15.2373 28.6682 15.206 28.6682 15.1732 28.6676C15.0907 28.667 15.0099 28.6659 14.9271 28.6636L14.9211 28.6634C14.9117 28.6632 14.9024 28.6629 14.893 28.6627V12.2173C14.893 10.3039 14.3886 8.44096 13.4348 6.83091C13.417 6.80037 13.3834 6.74434 13.3422 6.67621C13.4512 6.61994 13.565 6.56703 13.6837 6.51752C13.702 6.50988 13.7202 6.50225 13.7379 6.49514C13.8812 6.438 13.9905 6.40193 14.0569 6.38173L14.079 6.37474C14.0963 6.3694 14.1129 6.36446 14.128 6.36006C14.1388 6.37744 14.1494 6.39465 14.1599 6.41157C14.2012 6.47864 14.2397 6.54089 14.2696 6.58858C14.6477 7.2069 14.9606 7.86704 15.1996 8.55061L15.2007 8.55489C15.5793 9.64054 15.7712 10.7779 15.7712 11.9354V28.6647ZM17.3477 6.82979C16.7114 7.90404 16.2752 9.09011 16.055 10.3286C15.9604 9.70344 15.8102 9.08817 15.6054 8.48794C15.8387 7.82933 16.1437 7.19069 16.5127 6.58776C16.5498 6.52656 16.5994 6.44634 16.652 6.36159C16.7598 6.39342 16.8681 6.43024 16.972 6.47012L16.9738 6.47083L16.9754 6.47141L17.0184 6.48827C17.0239 6.49044 17.0294 6.4925 17.0349 6.49473C17.0459 6.49937 17.0569 6.50395 17.068 6.50824C17.0923 6.51875 17.1165 6.52903 17.1377 6.53772C17.1406 6.53895 17.1433 6.54007 17.1462 6.5413L17.1971 6.56386C17.2127 6.57061 17.2282 6.57795 17.2441 6.58535L17.3511 6.63639C17.3673 6.64397 17.3836 6.65219 17.3992 6.66023C17.4119 6.66675 17.4246 6.67339 17.4371 6.67997C17.3975 6.74604 17.3652 6.80019 17.3477 6.82979ZM18.2867 6.73823C18.1415 6.62746 17.9866 6.52515 17.8248 6.43136L17.8208 6.42848L17.7629 6.39536C17.7416 6.38314 17.7203 6.37151 17.7019 6.3617L17.7004 6.36088C17.6614 6.34015 17.6225 6.31971 17.5845 6.3001C17.5642 6.28964 17.5434 6.27925 17.5251 6.27067L17.4708 6.24436C17.4572 6.23778 17.4437 6.23144 17.4303 6.22521L17.4152 6.21822C17.396 6.20924 17.3768 6.20025 17.3598 6.19291L17.3067 6.16936C17.2774 6.15679 17.2487 6.14446 17.2212 6.13306C17.2191 6.13218 17.2161 6.13101 17.214 6.13024C17.2067 6.12754 17.1991 6.12425 17.1872 6.11932C17.1704 6.11251 17.1532 6.10575 17.1366 6.09935L17.1239 6.09448L17.1194 6.09272C17.0108 6.05102 16.9003 6.0139 16.7901 5.98066L17.3934 2.51165L18.246 3.24708C18.5484 4.56665 18.3851 6.07651 18.2867 6.73823ZM23.0218 26.7483C22.7387 26.7516 22.501 26.5326 22.4841 26.2478L22.4235 25.2058H25.2617C25.2964 25.7063 25.3289 26.2112 25.358 26.7132L23.0218 26.7483Z" stroke="#26436C" stroke-width="0.5"/>
</svg>
