<svg width="30" height="31" viewBox="0 0 30 31" fill="none" xmlns="http://www.w3.org/2000/svg">
<g clip-path="url(#clip0_15_5042)">
<path d="M6.565 21.5297C2.26285 21.5297 0.114668 20.6808 0.00107197 18.9346C-0.00456602 18.8499 0.0121065 18.7652 0.0494137 18.689C0.151892 18.4797 1.24242 16.6099 7.72803 15.5459C10.435 15.1016 14.6405 11.6557 14.6825 11.6213C14.9513 11.4076 17.2928 9.5742 18.6347 9.5742C18.799 9.5659 18.9631 9.59498 19.1146 9.65925C19.2661 9.72353 19.4012 9.82133 19.5096 9.94534C19.6494 10.1462 19.7431 10.3756 19.7839 10.617C19.8247 10.8585 19.8116 11.106 19.7455 11.3417C19.6851 11.7061 19.7977 11.8393 19.8345 11.8834C20.2038 12.1535 20.6624 12.2716 21.1159 12.2134C23.542 12.2134 27.6823 10.6295 27.7243 10.6145C27.8285 10.5748 27.9431 10.5725 28.0488 10.6078C28.1545 10.6431 28.2448 10.7139 28.3044 10.8083C28.3977 10.9565 30.5903 14.479 29.8425 18.4409C29.8218 18.5507 29.7638 18.65 29.6785 18.7218C29.5931 18.7937 29.4856 18.8338 29.3741 18.8353C29.2948 18.8353 21.3929 18.9598 16.9617 20.3587C13.5443 21.0987 10.0611 21.4911 6.565 21.5297ZM0.990565 19.0277C1.24096 20.004 3.24896 20.5607 6.565 20.5607C9.96767 20.5167 13.3577 20.1369 16.6862 19.4269C20.7075 18.1579 27.2525 17.9142 28.9574 17.8716C29.3369 15.0948 28.1594 12.5535 27.6823 11.6615C26.5589 12.069 23.2902 13.1815 21.1169 13.1815C20.1409 13.1815 19.4806 12.9615 19.0978 12.5085C18.9505 12.3247 18.8465 12.1099 18.7937 11.8801C18.7409 11.6504 18.7406 11.4117 18.7928 11.1818C18.8735 10.6973 18.7773 10.5752 18.773 10.5699C18.7313 10.5463 18.6832 10.5367 18.6357 10.5423C17.8758 10.5423 16.181 11.6659 15.2911 12.3742C15.1171 12.5196 10.8473 16.0159 7.88561 16.5028C2.79989 17.3362 1.3212 18.6517 0.990565 19.0277Z" fill="#26436C"/>
<path d="M20.047 21.4856C19.9194 21.4856 19.7971 21.4351 19.7065 21.3451C19.616 21.255 19.5646 21.1328 19.5636 21.005L19.5501 19.1764C19.5493 19.057 19.5925 18.9415 19.6715 18.8521C19.7504 18.7626 19.8595 18.7056 19.9778 18.6919L29.2309 17.6216C29.2985 17.6135 29.3672 17.6199 29.4322 17.6404C29.4972 17.661 29.5571 17.6952 29.6079 17.7408C29.6588 17.7862 29.6995 17.8418 29.7274 17.9041C29.7553 17.9664 29.7698 18.0339 29.7698 18.1022V20.9943C29.7698 21.1228 29.7189 21.2461 29.6283 21.3369C29.5376 21.4278 29.4147 21.4788 29.2865 21.4788L20.045 21.4856H20.047ZM20.5202 19.6042L20.527 20.5161L28.8045 20.5103V18.6458L20.5202 19.6042Z" fill="#26436C"/>
<path d="M9.26261 21.1116C6.9119 18.7587 9.20412 15.1951 9.22733 15.1597L9.63144 15.4257C9.61017 15.4582 7.53305 18.6958 9.60437 20.769L9.26261 21.1116Z" fill="#26436C"/>
<path d="M14.5533 14.8405C14.4892 14.8403 14.4279 14.8147 14.3826 14.7692L13.1331 13.5192C13.1091 13.4971 13.0898 13.4703 13.0764 13.4406C13.063 13.4108 13.0557 13.3786 13.055 13.346C13.0543 13.3133 13.0602 13.2809 13.0723 13.2506C13.0845 13.2203 13.1026 13.1927 13.1256 13.1696C13.1486 13.1465 13.1761 13.1283 13.2063 13.1161C13.2365 13.1039 13.2689 13.0979 13.3015 13.0986C13.334 13.0992 13.3661 13.1065 13.3959 13.1199C13.4256 13.1333 13.4523 13.1526 13.4744 13.1766L14.7239 14.4267C14.7578 14.4605 14.7808 14.5037 14.7902 14.5507C14.7996 14.5977 14.7949 14.6464 14.7766 14.6907C14.7583 14.735 14.7273 14.7729 14.6876 14.7996C14.6478 14.8262 14.6011 14.8404 14.5533 14.8405Z" fill="#26436C"/>
<path d="M15.7512 14.087C15.7195 14.0871 15.688 14.0808 15.6586 14.0687C15.6293 14.0566 15.6026 14.0387 15.5801 14.0163L14.331 12.7652C14.287 12.7195 14.2626 12.6583 14.2632 12.5948C14.2637 12.5313 14.2892 12.4705 14.334 12.4256C14.3788 12.3807 14.4394 12.3552 14.5028 12.3547C14.5661 12.3541 14.6272 12.3785 14.6728 12.4227L15.9219 13.6737C15.9556 13.7076 15.9785 13.7507 15.9878 13.7976C15.9971 13.8446 15.9923 13.8932 15.974 13.9374C15.9558 13.9816 15.9249 14.0194 15.8852 14.046C15.8456 14.0726 15.7989 14.0869 15.7512 14.087Z" fill="#26436C"/>
<path d="M16.8967 13.3016C16.865 13.3017 16.8335 13.2954 16.8041 13.2833C16.7748 13.2712 16.7481 13.2533 16.7256 13.2309L15.4765 11.9798C15.4325 11.9341 15.4081 11.8729 15.4087 11.8094C15.4093 11.7459 15.4347 11.6851 15.4795 11.6402C15.5243 11.5953 15.5849 11.5698 15.6483 11.5693C15.7117 11.5687 15.7727 11.5931 15.8183 11.6373L17.0674 12.8883C17.1011 12.9222 17.124 12.9653 17.1333 13.0122C17.1426 13.0591 17.1378 13.1078 17.1195 13.152C17.1013 13.1962 17.0704 13.234 17.0307 13.2606C16.9911 13.2872 16.9445 13.3015 16.8967 13.3016Z" fill="#26436C"/>
</g>
<defs>
<clipPath id="clip0_15_5042">
<rect width="30" height="30.0703" fill="white" transform="translate(0 0.517578)"/>
</clipPath>
</defs>
</svg>
