<svg width="30" height="31" viewBox="0 0 30 31" fill="none" xmlns="http://www.w3.org/2000/svg">
<g clip-path="url(#clip0_17_5060)">
<path d="M0.771963 12.7383C0.771963 12.7383 0.771729 12.7375 0.771553 12.7368L0.732178 12.6335L0.771963 12.7383Z" fill="#26436C"/>
<path d="M1.01001 10.4101L1.66497 9.98141C1.66532 9.98141 1.66567 9.981 1.66608 9.98059L1.01001 10.4101Z" fill="#26436C"/>
<path d="M28.1464 16.11C28.1142 16.0257 28.0982 15.9367 28.0982 15.8478C28.0982 15.7584 28.1142 15.6691 28.1466 15.5839L29.135 12.9836L29.2279 12.7386C29.3299 12.4705 29.3792 12.191 29.3792 11.916C29.3795 11.1533 29.0008 10.4174 28.3342 9.98065L28.0061 9.76593L25.7889 8.3148C25.6384 8.2159 25.5284 8.06367 25.4813 7.88918L24.6875 4.94987C24.4135 3.93793 23.4992 3.24227 22.4622 3.24227C22.423 3.24227 22.384 3.24303 22.3448 3.24532L19.3223 3.39679V3.39644L19.2769 3.39761C19.1072 3.39761 18.9437 3.34005 18.8121 3.23387L16.5992 1.44727L16.447 1.32458C16.0259 0.983649 15.5113 0.812272 15.0002 0.812625C14.4892 0.811861 13.9745 0.983649 13.5531 1.32458L13.5537 1.32417L11.4323 3.03677L11.1886 3.23352C11.0564 3.34011 10.8923 3.39767 10.7234 3.39767L10.6839 3.39679L7.66312 3.24573L7.66118 3.24532C7.61431 3.24262 7.57317 3.24227 7.53802 3.24227C6.50085 3.24227 5.58667 3.93788 5.31274 4.94987L4.51886 7.88918C4.47163 8.06437 4.36106 8.21701 4.2096 8.31633L3.99093 8.4594L1.66511 9.98141C0.998838 10.4186 0.620498 11.154 0.62085 11.9164C0.62085 12.1909 0.67001 12.4693 0.771612 12.737L1.85355 15.5839L1.85372 15.5842C1.88583 15.6686 1.90212 15.7584 1.90212 15.8477C1.90212 15.9371 1.88606 16.0264 1.85372 16.1108L0.772022 18.9569L0.772198 18.9566C0.670244 19.2246 0.62085 19.5038 0.62085 19.7787C0.620498 20.5415 0.998838 21.2777 1.66605 21.7149L3.55382 22.9504L4.21013 23.3799C4.36147 23.4788 4.47163 23.6307 4.51886 23.8063L5.31274 26.7453C5.58644 27.7572 6.50103 28.4529 7.53802 28.4532C7.57317 28.4529 7.6115 28.4525 7.65239 28.4502L7.56556 28.4548L10.6967 28.298H10.6952L10.7245 28.2975C10.8925 28.2975 11.056 28.3551 11.188 28.4617L13.5535 30.3717H13.5537C13.9747 30.7119 14.4891 30.8833 15.0002 30.8829C15.5111 30.8834 16.0257 30.7119 16.4469 30.3714L19.0157 28.2971L18.8126 28.4613C18.9446 28.3547 19.1078 28.2975 19.2759 28.2975L19.311 28.2983L22.369 28.4513L22.3536 28.4506C22.3869 28.4521 22.4231 28.4529 22.4623 28.4532C23.4989 28.4529 24.4138 27.7576 24.6876 26.7453L25.4814 23.8063C25.5286 23.6307 25.6387 23.4793 25.7897 23.3803L28.3356 21.7141C29.0015 21.2769 29.3797 20.5415 29.3793 19.7791C29.3793 19.5041 29.33 19.2245 29.2278 18.9561L28.1464 16.11ZM26.6825 15.0248C26.5817 15.2898 26.5312 15.569 26.5312 15.8478C26.5312 16.127 26.5817 16.4061 26.6825 16.6711L27.7635 19.516L27.7636 19.5164C27.7967 19.6035 27.8122 19.6917 27.8122 19.7791C27.8118 20.0238 27.6913 20.26 27.4773 20.4L24.9337 22.0647H24.9339C24.4601 22.3745 24.1165 22.8485 23.9686 23.3961L23.1748 26.335C23.0878 26.6594 22.7932 26.8826 22.4623 26.8822L22.4183 26.881L22.4072 26.8807L19.3912 26.73H19.3933C19.3561 26.7277 19.3169 26.7269 19.2759 26.7265C18.7504 26.7265 18.2396 26.9067 17.829 27.2384L17.6256 27.403L15.4637 29.1485C15.3275 29.2586 15.1657 29.3122 15.0002 29.3122C14.835 29.3122 14.6729 29.2586 14.5366 29.1485L12.1713 27.2384C11.7608 26.9071 11.2502 26.7269 10.7246 26.7269C10.6894 26.7269 10.6482 26.7273 10.6012 26.73V26.7304L7.5754 26.8818L7.57634 26.8815L7.53814 26.8822C7.20755 26.8826 6.91259 26.6594 6.82558 26.3351L6.03175 23.3962C5.88386 22.8485 5.54032 22.3746 5.06648 22.0647L3.17905 20.8295L2.52315 20.4C2.30929 20.2604 2.18841 20.0239 2.188 19.7788C2.18817 19.6909 2.20353 19.6028 2.2364 19.5165L3.3181 16.6708L3.31792 16.6712C3.4187 16.4058 3.46921 16.127 3.46921 15.8478C3.46921 15.5687 3.41894 15.2895 3.31792 15.0245L2.2763 12.2845L2.23651 12.1802C2.20341 12.0928 2.18812 12.0042 2.18788 11.9164C2.18829 11.6714 2.30899 11.4355 2.5228 11.296L5.06659 9.63137L5.067 9.63096C5.54056 9.32039 5.8838 8.84679 6.03169 8.29953L6.82552 5.36022C6.91235 5.0362 7.20773 4.81262 7.53808 4.81303L7.56755 4.81338L10.6092 4.96561L10.6124 4.96602C10.6493 4.96755 10.6865 4.96837 10.7234 4.96872C11.2489 4.96872 11.7598 4.78883 12.1707 4.45753L14.5371 2.54707C14.6731 2.43701 14.8348 2.38368 15.0002 2.38333C15.1655 2.38333 15.3274 2.43701 15.4635 2.54707L15.3111 2.42397L17.8294 4.45712C18.2408 4.78918 18.7523 4.96831 19.277 4.96831C19.3161 4.96831 19.351 4.96714 19.382 4.96637H19.3738L22.4251 4.81373H22.4272L22.4624 4.81297C22.7929 4.81256 23.088 5.03615 23.1749 5.36016L23.9687 8.29947C24.1166 8.84667 24.4597 9.32028 24.9334 9.6309L27.8055 11.5106L27.4773 11.2959C27.6913 11.4355 27.8119 11.6713 27.8122 11.916C27.8122 12.0039 27.7968 12.0921 27.7635 12.1798L26.5428 15.3914L26.6825 15.0248Z" fill="#26436C"/>
<path d="M11.4932 14.1034L10.6855 14.2625C10.643 14.2713 10.6197 14.305 10.6281 14.3484L11.229 17.4127L11.194 17.42L8.87789 14.6935C8.83963 14.649 8.79293 14.6356 8.74283 14.6456L7.88525 14.8147C7.84277 14.8232 7.81945 14.8569 7.82865 14.9002L8.75543 19.6249C8.76363 19.6683 8.79791 19.6917 8.84039 19.6832L9.64799 19.524C9.69047 19.5152 9.71379 19.4811 9.70559 19.4378L9.10547 16.3808L9.14121 16.3738L11.4623 19.0919C11.5005 19.1364 11.5407 19.1506 11.5981 19.1398L12.4482 18.9719C12.4907 18.9634 12.514 18.9293 12.5048 18.8859L11.5782 14.1608C11.5699 14.1176 11.5356 14.095 11.4932 14.1034Z" fill="#26436C"/>
<path d="M16.4571 17.2367L14.3635 17.6493C14.3352 17.6555 14.3178 17.644 14.3128 17.6152L14.1145 16.6055C14.1085 16.5771 14.1202 16.5603 14.1485 16.5542L15.8921 16.2106C15.9346 16.2021 15.9579 16.1684 15.9497 16.1255L15.8005 15.3666C15.7921 15.3241 15.7578 15.3006 15.7154 15.3087L13.972 15.6527C13.9436 15.658 13.926 15.6461 13.9203 15.6178L13.731 14.6514C13.7252 14.6226 13.7369 14.6054 13.7652 14.6L15.8588 14.1874C15.9013 14.1789 15.9246 14.1448 15.9154 14.1019L15.7654 13.3361C15.757 13.2928 15.7229 13.2698 15.6803 13.2782L12.5659 13.8922C12.5225 13.9007 12.4999 13.9348 12.5083 13.9781L13.4351 18.7032C13.4443 18.7462 13.4775 18.7692 13.521 18.7608L16.6353 18.1468C16.678 18.1383 16.7013 18.1042 16.6922 18.0613L16.542 17.2951C16.5338 17.252 16.4996 17.2283 16.4571 17.2367Z" fill="#26436C"/>
<path d="M22.1028 12.0123L21.1885 12.1925C21.1386 12.2021 21.1143 12.2297 21.1168 12.2815L21.0452 15.47L21.0301 15.4727L19.5742 12.5855C19.5509 12.5445 19.5166 12.5218 19.4741 12.5303L18.8525 12.6526C18.8033 12.6626 18.78 12.6963 18.7741 12.7431L18.5449 15.9628L18.5307 15.9658L17.2305 13.0468C17.2156 13.0047 17.1814 12.9825 17.1315 12.9924L16.2097 13.1734C16.1597 13.1834 16.1513 13.2149 16.1672 13.2566L18.3507 17.7337C18.3741 17.7739 18.4082 17.7974 18.4508 17.7889L19.1651 17.6478C19.215 17.6382 19.2383 17.6037 19.2441 17.558L19.5 14.3622L19.5142 14.3595L20.9509 17.2214C20.9735 17.2616 21.0078 17.285 21.0577 17.2751L21.772 17.1339C21.8219 17.1247 21.8519 17.0887 21.8512 17.0438L22.1737 12.0725C22.1719 12.0276 22.1528 12.0023 22.1028 12.0123Z" fill="#26436C"/>
</g>
<defs>
<clipPath id="clip0_17_5060">
<rect width="30" height="30.0703" fill="white" transform="translate(0 0.812622)"/>
</clipPath>
</defs>
</svg>
