<svg width="25" height="26" viewBox="0 0 25 26" fill="none" xmlns="http://www.w3.org/2000/svg">
<path d="M16.0008 25.5013C15.6896 25.5013 15.3746 25.4813 15.0596 25.4413C11.6883 25.015 8.45458 23.275 5.44708 20.2663C2.43958 17.26 0.699582 14.0263 0.272082 10.6538C-0.0829182 7.84501 1.17708 5.11126 3.56333 3.52126L7.37458 0.981262L13.4021 7.00876L9.45958 10.9513C9.62708 11.465 10.1471 12.5913 11.6346 14.08C13.1221 15.5675 14.2483 16.0863 14.7871 16.2638L18.7058 12.3125L24.7333 18.34L22.1921 22.1513C20.7808 24.27 18.4683 25.5013 16.0008 25.5013ZM7.37458 3L4.5 5C2.93375 6.045 1.2675 8.82001 1.5 10.6538C1.855 13.4625 3.895 16.895 6.5 19.5C9.10625 22.1063 12.6925 23.6462 15.5 24C17.3412 24.235 19.4562 23.0675 20.5 21.5L22.1921 18.4988L18.5 15L16.5 17C15.8263 17.6725 15.385 17.7887 14.5 17.5C13.585 17.1987 12.2625 16.7612 10.5 15C8.74 13.2413 8.30125 12.9163 8 12C7.71 11.1125 7.82875 10.1713 8.5 9.5L11 7.00876L7.37458 3Z" fill="#26436C"/>
</svg>
