<svg width="36.000000" height="50.000000" viewBox="0 0 36 50" fill="none" xmlns="http://www.w3.org/2000/svg" xmlns:xlink="http://www.w3.org/1999/xlink">
	<desc>
			Created with Pixso.
	</desc>
	<defs>
		<clipPath id="clip432_93">
			<rect id="reshot-icon-location-marker-ZE5Y87KGQF 1" width="36.000000" height="50.000000" fill="white" fill-opacity="0"/>
		</clipPath>
	</defs>
	<g clip-path="url(#clip432_93)">
		<path id="path" d="M18.11 49.59C16.71 49.59 15.41 48.69 14.51 46.99C3.41 26.49 3.31 26.29 3.31 26.19C1.71 23.64 0.86 20.54 0.86 17.39C0.86 7.84 8.61 0.09 18.16 0.09C27.71 0.09 35.46 7.84 35.46 17.39C35.46 20.64 34.56 23.79 32.86 26.49C32.86 26.49 32.26 27.69 21.76 46.99C20.81 48.69 19.56 49.59 18.11 49.59ZM18.16 2.09C9.71 2.09 2.86 8.94 2.86 17.39C2.86 20.19 3.61 22.94 5.11 25.34C5.41 25.99 13.31 40.54 16.31 46.09C17.36 48.04 18.91 48.04 20.01 46.09C23.76 39.19 30.86 26.04 31.11 25.59C32.66 23.09 33.46 20.29 33.46 17.44C33.41 8.94 26.56 2.09 18.16 2.09Z" fill="#26436C" fill-opacity="1.000000" fill-rule="nonzero"/>
		<path id="path" d="M18.16 27.79C12.86 27.79 8.61 23.49 8.61 18.24C8.61 12.99 12.86 8.64 18.16 8.64C23.46 8.64 27.71 12.94 27.71 18.19C27.71 23.44 23.41 27.79 18.16 27.79ZM18.16 10.64C14.01 10.64 10.61 14.04 10.61 18.19C10.61 22.34 14.01 25.74 18.16 25.74C22.31 25.74 25.71 22.34 25.71 18.19C25.71 14.04 22.31 10.64 18.16 10.64Z" fill="#26436C" fill-opacity="1.000000" fill-rule="nonzero"/>
	</g>
</svg>
