<svg width="30" height="31" viewBox="0 0 30 31" fill="none" xmlns="http://www.w3.org/2000/svg">
<g clip-path="url(#clip0_17_5068)">
<path d="M28.1352 16.2842C28.0937 16.1754 28.0732 16.0608 28.0732 15.9461C28.0732 15.8315 28.0937 15.7169 28.1352 15.6081L29.2307 12.7255C29.3253 12.4764 29.3714 12.2177 29.371 11.9624C29.3714 11.2552 29.0206 10.573 28.4023 10.1681L25.8249 8.48143C25.6307 8.3544 25.4892 8.15894 25.4287 7.93435L24.6244 4.95576C24.3705 4.01782 23.5224 3.37284 22.561 3.37284C22.5249 3.37284 22.4889 3.37366 22.4525 3.37554L19.3874 3.52906L19.3336 3.53024C19.1169 3.53024 18.9072 3.45641 18.7381 3.32045L16.3414 1.38544C15.951 1.06953 15.4742 0.9106 15.0005 0.911012C14.5264 0.9106 14.0496 1.06953 13.6585 1.38585L11.2621 3.32039C11.0935 3.45641 10.8834 3.53018 10.6667 3.53018L10.6178 3.529L7.53302 3.37472L7.55235 3.37589C7.51005 3.37319 7.47249 3.37278 7.43956 3.37278C6.47821 3.37278 5.63007 4.01776 5.37618 4.9557L4.57181 7.9343C4.51134 8.15888 4.36983 8.35434 4.1756 8.48138L1.59823 10.1681C0.979952 10.573 0.628741 11.2556 0.629151 11.9628C0.629151 12.2177 0.674913 12.4764 0.769073 12.7251L1.8653 15.6081C1.90679 15.7169 1.92735 15.8315 1.92735 15.9461C1.92735 16.0604 1.90679 16.1754 1.8653 16.2842L0.769483 19.1672C0.674913 19.4154 0.629151 19.6742 0.629151 19.9291C0.628799 20.6362 0.9796 21.319 1.59823 21.7246L4.1756 23.4113C4.36983 23.5383 4.51128 23.733 4.57181 23.9579L5.37618 26.9357C5.63007 27.874 6.47821 28.519 7.43915 28.5194C7.47249 28.519 7.50817 28.5186 7.54579 28.5167L7.64464 28.5116L10.6206 28.3628L10.6264 28.3624L10.6683 28.3616C10.8838 28.3616 11.0931 28.4354 11.2621 28.5718L13.6589 30.5071C14.0496 30.8226 14.5264 30.9816 15.0005 30.9811C15.4742 30.9816 15.951 30.8226 16.3417 30.5071L18.7384 28.5718C18.9075 28.435 19.1168 28.3616 19.3323 28.3616L19.3784 28.3627L19.4327 28.3654L22.4388 28.5158L22.4594 28.517C22.4911 28.5181 22.5249 28.5189 22.5609 28.5189C23.5218 28.5189 24.3704 27.8743 24.6243 26.9356L25.4287 23.9578C25.4891 23.7329 25.6306 23.5382 25.8245 23.4111L28.4022 21.7244C29.0205 21.3188 29.3714 20.6365 29.371 19.9294C29.3714 19.6745 29.3252 19.4157 29.2306 19.1667L28.1352 16.2842ZM27.7507 20.7253L25.1737 22.4119C24.7345 22.699 24.4163 23.1385 24.2791 23.6463L23.4747 26.6241C23.363 27.0399 22.9858 27.3258 22.561 27.3258L22.5082 27.3243L19.4397 27.1708H19.4413C19.4064 27.1689 19.3703 27.168 19.3323 27.168C18.8454 27.1677 18.3717 27.3348 17.9911 27.6425L15.5943 29.5778C15.4203 29.7181 15.2117 29.7876 15.0004 29.7876C14.7888 29.7876 14.5803 29.7181 14.4062 29.5778L12.0094 27.6425C11.6288 27.3351 11.1551 27.168 10.6682 27.168C10.6364 27.168 10.6 27.1689 10.5608 27.1712V27.1708L7.48685 27.3247H7.48767L7.43921 27.3254C7.01517 27.3258 6.63759 27.0399 6.52591 26.6241L5.72165 23.6464C5.58442 23.1385 5.26614 22.6991 4.82657 22.4116L2.24956 20.7253C1.97552 20.5462 1.82048 20.2431 1.82007 19.9292C1.82007 19.8165 1.84022 19.703 1.88206 19.5923L2.97794 16.7093C3.07134 16.4637 3.11821 16.205 3.11821 15.9462C3.11821 15.6874 3.07134 15.4287 2.97794 15.1827L1.88206 12.3005C1.84022 12.1889 1.82007 12.0755 1.82007 11.9628C1.82048 11.6489 1.97511 11.3466 2.24915 11.1674L4.82692 9.4808C5.26614 9.19284 5.58437 8.75342 5.72159 8.24598L6.52591 5.26779C6.63759 4.85245 7.01517 4.56607 7.43962 4.56649L7.4811 4.56731L7.49429 4.56807L10.5609 4.72154H10.5636L10.6667 4.72388C11.154 4.7243 11.6277 4.55721 12.0091 4.25028L14.4059 2.31492L14.0326 1.85024L14.4063 2.31451C14.5804 2.17384 14.7889 2.10472 15.0006 2.10472C15.2118 2.10472 15.4204 2.17426 15.5944 2.31451L17.9916 4.24987C18.373 4.55797 18.8471 4.72388 19.3336 4.72388C19.3697 4.72388 19.4026 4.72312 19.4325 4.72195L19.4437 4.72118L22.4595 4.57042L22.5153 4.56766L22.561 4.56649C22.9855 4.56607 23.3631 4.85245 23.4747 5.26779L24.2791 8.24598C24.4163 8.75342 24.7346 9.19284 25.1738 9.4808L27.7511 11.1674C28.0252 11.3466 28.1803 11.6489 28.1803 11.9624C28.1803 12.0751 28.1605 12.1889 28.1179 12.3008L27.0228 15.183C26.9294 15.4286 26.8824 15.6874 26.8824 15.9461C26.8824 16.2049 26.9294 16.4637 27.0228 16.7092L28.1182 19.5922C28.1605 19.7033 28.1803 19.8168 28.1803 19.9294C28.1802 20.2431 28.0251 20.5457 27.7507 20.7253Z" fill="#26436C"/>
<path d="M13.0519 14.2653C13.0305 14.2276 12.9988 14.2062 12.9523 14.2156L12.115 14.3807C12.0684 14.3896 12.0471 14.4211 12.0417 14.4642L11.3493 19.166C11.3439 19.2088 11.3625 19.2328 11.409 19.2236L12.2792 19.0522C12.3257 19.0428 12.3482 19.018 12.3521 18.9682L12.4494 18.1263L14.031 17.8147L14.4453 18.5556C14.4678 18.6003 14.4984 18.6147 14.545 18.6057L15.4086 18.4351C15.4551 18.4262 15.4629 18.3967 15.4419 18.3594L13.0519 14.2653ZM12.5584 17.24L12.7588 15.5537L12.7789 15.5498L13.6019 17.0344L12.5584 17.24Z" fill="#26436C"/>
<path d="M9.08593 16.8522L8.8406 16.8658C8.30716 16.895 8.08896 16.7648 8.03816 16.5052C7.98196 16.2189 8.14708 15.9718 8.54599 15.8933C8.91771 15.8198 9.27355 15.8743 9.6639 16.0324C9.70034 16.0459 9.73251 16.0327 9.75232 15.9943L10.0391 15.3081C10.0632 15.2549 10.0516 15.2301 10.0062 15.211C9.57015 14.993 8.97665 14.9227 8.37894 15.0408C7.40212 15.2331 6.88614 15.9092 7.04933 16.7419C7.2063 17.5411 7.80249 17.8725 8.74444 17.8185L8.99019 17.8049C9.5422 17.7722 9.73444 17.9071 9.78718 18.1737C9.84964 18.4934 9.62669 18.7654 9.1553 18.8583C8.677 18.9527 8.22694 18.8062 7.88077 18.6252C7.8428 18.605 7.80284 18.6127 7.78269 18.652L7.39157 19.3308C7.36562 19.377 7.38847 19.4213 7.42028 19.4427C7.83888 19.7127 8.5781 19.8576 9.28251 19.7185C10.452 19.4881 10.9377 18.7627 10.7772 17.9437C10.6163 17.1246 10.0407 16.7955 9.08593 16.8522Z" fill="#26436C"/>
<path d="M18.9525 16.8309L16.9593 17.2237C16.9329 17.2288 16.917 17.2179 16.9116 17.1915L16.215 13.6418C16.2073 13.6014 16.1759 13.58 16.1359 13.5881L15.292 13.7545C15.2521 13.7622 15.2304 13.7941 15.2381 13.8345L16.1006 18.2297C16.1088 18.2694 16.1406 18.2911 16.1805 18.2833L19.1238 17.7028C19.1641 17.6951 19.185 17.6632 19.1773 17.6232L19.0323 16.8838C19.0246 16.8437 18.9928 16.8228 18.9525 16.8309Z" fill="#26436C"/>
<path d="M22.5677 16.1455L20.6206 16.529C20.5942 16.5344 20.5779 16.5239 20.5729 16.4975L20.3888 15.558C20.3834 15.5316 20.3942 15.5156 20.4206 15.5102L22.042 15.1908C22.0816 15.1831 22.1033 15.1512 22.0951 15.1112L21.9567 14.4053C21.9489 14.3656 21.9168 14.3442 21.8773 14.352L20.2562 14.6714C20.2298 14.6768 20.2135 14.666 20.2081 14.6395L20.0317 13.7404C20.0267 13.7132 20.0375 13.6977 20.0639 13.6923L22.011 13.3084C22.0506 13.3006 22.0719 13.2688 22.0641 13.2288L21.9245 12.5165C21.9164 12.4761 21.8846 12.4548 21.8451 12.463L18.9479 13.0338C18.908 13.0419 18.8866 13.0734 18.8948 13.1138L19.7569 17.509C19.7647 17.5491 19.7965 17.5708 19.8364 17.5626L22.7336 16.9918C22.7732 16.9837 22.7944 16.9518 22.7867 16.9118L22.6471 16.1992C22.639 16.1591 22.6072 16.1373 22.5677 16.1455Z" fill="#26436C"/>
</g>
<defs>
<clipPath id="clip0_17_5068">
<rect width="30" height="30.0703" fill="white" transform="translate(0 0.911011)"/>
</clipPath>
</defs>
</svg>
