<svg width="37" height="37" viewBox="0 0 37 37" fill="none" xmlns="http://www.w3.org/2000/svg">
<g clip-path="url(#clip0_25_5206)">
<path d="M18.5 0C8.28265 0 0 8.28265 0 18.5C0 28.7173 8.28265 37 18.5 37C28.7173 37 37 28.7173 37 18.5C37 8.28265 28.7173 0 18.5 0Z" fill="#40B3E0"/>
<path d="M27.5017 10.6419L24.1975 27.3016C24.1975 27.3016 23.7354 28.4569 22.4645 27.9024L14.8394 22.0564L12.0667 20.7163L7.39918 19.1449C7.39918 19.1449 6.68288 18.8909 6.61351 18.3363C6.54428 17.7817 7.4223 17.4814 7.4223 17.4814L25.9767 10.2028C25.9767 10.2028 27.5017 9.53274 27.5017 10.6419Z" fill="white"/>
<path d="M14.2533 27.1146C14.2533 27.1146 14.0307 27.0938 13.7533 26.2156C13.4761 25.3376 12.0667 20.7164 12.0667 20.7164L23.2732 13.5996C23.2732 13.5996 23.9202 13.2068 23.8971 13.5996C23.8971 13.5996 24.0126 13.6689 23.666 13.9923C23.3194 14.3159 14.8625 21.9179 14.8625 21.9179" fill="#D2E5F1"/>
<path d="M17.7632 24.2978L14.7471 27.0477C14.7471 27.0477 14.5114 27.2266 14.2534 27.1145L14.831 22.0066" fill="#B5CFE4"/>
</g>
<defs>
<clipPath id="clip0_25_5206">
<rect width="37" height="37" fill="white"/>
</clipPath>
</defs>
</svg>
