<svg width="40" height="38" viewBox="0 0 40 38" fill="none" xmlns="http://www.w3.org/2000/svg">
<path d="M23.5369 6.72908C23.0215 5.34382 21.6309 4.35419 20 4.35419C18.3692 4.35419 16.9784 5.34382 16.463 6.72908C16.233 7.34743 15.5189 7.67154 14.8679 7.45298C14.217 7.23441 13.8759 6.55597 14.1059 5.93763C14.9634 3.63312 17.2767 1.97919 20 1.97919C22.7232 1.97919 25.0366 3.63312 25.894 5.93763C26.1241 6.55597 25.7829 7.23441 25.132 7.45298C24.4811 7.67154 23.767 7.34743 23.5369 6.72908Z" fill="#26436C"/>
<path d="M35.417 9.5C35.417 8.84417 34.8573 8.3125 34.167 8.3125H5.83349C5.14316 8.3125 4.58349 8.84417 4.58349 9.5C4.58349 10.1558 5.14316 10.6875 5.83349 10.6875H34.167C34.8573 10.6875 35.417 10.1558 35.417 9.5Z" fill="#26436C"/>
<path d="M31.4718 12.2735C30.783 12.2299 30.1873 12.725 30.1414 13.3794L29.3748 24.3029C29.2251 26.4371 29.1184 27.922 28.8841 29.0392C28.6568 30.1229 28.3396 30.6966 27.8839 31.1016C27.4282 31.5065 26.8046 31.7691 25.6513 31.9124C24.4623 32.0601 22.8955 32.0625 20.6442 32.0625H19.3552C17.1039 32.0625 15.5372 32.0601 14.3482 31.9124C13.1949 31.7691 12.5712 31.5065 12.1155 31.1016C11.6599 30.6966 11.3427 30.1229 11.1154 29.0392C10.8812 27.922 10.7744 26.4371 10.6247 24.3029L9.85804 13.3794C9.81221 12.725 9.21654 12.2299 8.52771 12.2735C7.83887 12.3171 7.31771 12.883 7.36354 13.5374L8.13604 24.5442C8.27854 26.5753 8.39371 28.2158 8.66354 29.5032C8.94421 30.8416 9.42154 31.9596 10.4075 32.8358C11.3935 33.7122 12.5995 34.0903 14.0239 34.2673C15.394 34.4375 17.1247 34.4375 19.2674 34.4375H20.732C22.8747 34.4375 24.6055 34.4375 25.9756 34.2673C27.4 34.0903 28.6059 33.7122 29.5919 32.8358C30.5779 31.9596 31.0552 30.8416 31.3359 29.5032C31.6059 28.2158 31.721 26.5753 31.8634 24.5442L32.6359 13.5374C32.6818 12.883 32.1606 12.3171 31.4718 12.2735Z" fill="#26436C"/>
</svg>
