<svg width="29" height="29" viewBox="0 0 29 29" fill="none" xmlns="http://www.w3.org/2000/svg">
<g clip-path="url(#clip0_17_5056)">
<path fill-rule="evenodd" clip-rule="evenodd" d="M25.5303 16.7749H21.2879C20.8195 16.7749 20.4394 17.1559 20.4394 17.6254V21.0272C20.4394 21.4976 20.8195 21.8777 21.2879 21.8777H25.5303V26.1301C25.5303 26.6004 25.1502 26.9805 24.6818 26.9805H4.31816C3.8498 26.9805 3.46967 26.6004 3.46967 26.1301V9.97111H24.6818C25.1502 9.97111 25.5303 10.3513 25.5303 10.8216V16.7749ZM25.5303 19.3263V20.1768H22.1363V19.3263V18.4758H25.5303V19.3263ZM23.8333 3.16733V8.27016H7.28786L23.8333 3.16733ZM25.5303 8.27016V2.31686C25.5303 1.84655 25.33 1.5863 24.8939 1.41365C24.5579 1.28013 24.2312 1.36008 23.8333 1.46639L1.77271 8.27016V26.9805C1.77271 27.9195 2.53295 28.6815 3.46967 28.6815H25.5303C26.467 28.6815 27.2272 27.9195 27.2272 26.9805V9.97111C27.2272 9.03219 26.467 8.27016 25.5303 8.27016Z" fill="#26436C"/>
</g>
<defs>
<clipPath id="clip0_17_5056">
<rect width="28" height="28.0656" fill="white" transform="translate(0.5 0.615936)"/>
</clipPath>
</defs>
</svg>
