<svg width="37" height="37" viewBox="0 0 37 37" fill="none" xmlns="http://www.w3.org/2000/svg">
<g clip-path="url(#clip0_25_5212)">
<path d="M0 37L3.182 27.4546C1.5674 24.739 0.637931 21.5697 0.637931 18.181C0.637931 8.14 8.77793 0 18.819 0C28.86 0 37 8.14 37 18.181C37 28.2221 28.86 36.3621 18.819 36.3621C15.7639 36.3621 12.8868 35.6048 10.36 34.2741L0 37Z" fill="#2CB742"/>
<path d="M30.4185 24.2317C29.579 22.6452 26.4831 20.8309 26.4831 20.8309C25.7826 20.4316 24.9374 20.3869 24.538 21.0988C24.538 21.0988 23.532 22.3052 23.2762 22.4787C22.1075 23.2704 21.0249 23.2397 19.9322 22.147L17.3926 19.6074L14.853 17.0677C13.7602 15.975 13.7296 14.8924 14.5212 13.7237C14.6947 13.4679 15.9011 12.4619 15.9011 12.4619C16.613 12.0619 16.5684 11.2173 16.169 10.5168C16.169 10.5168 14.3547 7.42096 12.7682 6.58144C12.0933 6.2242 11.2646 6.34923 10.7249 6.88892L9.60342 8.0104C6.04568 11.5681 7.79744 15.5846 11.3552 19.1423L14.6067 22.3938L17.8582 25.6454C21.416 29.2031 25.4324 30.9549 28.9901 27.3971L30.1116 26.2756C30.6513 25.7347 30.7757 24.906 30.4185 24.2317Z" fill="white"/>
</g>
<defs>
<clipPath id="clip0_25_5212">
<rect width="37" height="37" fill="white"/>
</clipPath>
</defs>
</svg>
